<svg width="34" height="34" viewBox="0 0 34 34" fill="none" xmlns="http://www.w3.org/2000/svg">
<circle cx="17" cy="17" r="17" fill="white"/>
<path fill-rule="evenodd" clip-rule="evenodd" d="M11 9H23C24.0609 9 25.0783 9.42143 25.8284 10.1716C26.5786 10.9217 27 11.9391 27 13V23C27 24.0609 26.5786 25.0783 25.8284 25.8284C25.0783 26.5786 24.0609 27 23 27H11C9.93913 27 8.92172 26.5786 8.17157 25.8284C7.42143 25.0783 7 24.0609 7 23V13C7 11.9391 7.42143 10.9217 8.17157 10.1716C8.92172 9.42143 9.93913 9 11 9ZM11 11C10.4696 11 9.96086 11.2107 9.58579 11.5858C9.21071 11.9609 9 12.4696 9 13V23C9 23.5304 9.21071 24.0391 9.58579 24.4142C9.96086 24.7893 10.4696 25 11 25H23C23.5304 25 24.0391 24.7893 24.4142 24.4142C24.7893 24.0391 25 23.5304 25 23V13C25 12.4696 24.7893 11.9609 24.4142 11.5858C24.0391 11.2107 23.5304 11 23 11H11Z" fill="#333333"/>
<path d="M11 11C10.4696 11 9.96086 11.2107 9.58579 11.5858C9.21071 11.9609 9 12.4696 9 13V23C9 23.5304 9.21071 24.0391 9.58579 24.4142C9.96086 24.7893 10.4696 25 11 25H23C23.5304 25 24.0391 24.7893 24.4142 24.4142C24.7893 24.0391 25 23.5304 25 23V13C25 12.4696 24.7893 11.9609 24.4142 11.5858C24.0391 11.2107 23.5304 11 23 11H11Z" fill="#EFFAE5"/>
<path fill-rule="evenodd" clip-rule="evenodd" d="M8 15C8 14.7348 8.10536 14.4804 8.29289 14.2929C8.48043 14.1054 8.73478 14 9 14H25C25.2652 14 25.5196 14.1054 25.7071 14.2929C25.8946 14.4804 26 14.7348 26 15C26 15.2652 25.8946 15.5196 25.7071 15.7071C25.5196 15.8946 25.2652 16 25 16H9C8.73478 16 8.48043 15.8946 8.29289 15.7071C8.10536 15.5196 8 15.2652 8 15ZM13 7C13.2652 7 13.5196 7.10536 13.7071 7.29289C13.8946 7.48043 14 7.73478 14 8V12C14 12.2652 13.8946 12.5196 13.7071 12.7071C13.5196 12.8946 13.2652 13 13 13C12.7348 13 12.4804 12.8946 12.2929 12.7071C12.1054 12.5196 12 12.2652 12 12V8C12 7.73478 12.1054 7.48043 12.2929 7.29289C12.4804 7.10536 12.7348 7 13 7ZM21 7C21.2652 7 21.5196 7.10536 21.7071 7.29289C21.8946 7.48043 22 7.73478 22 8V12C22 12.2652 21.8946 12.5196 21.7071 12.7071C21.5196 12.8946 21.2652 13 21 13C20.7348 13 20.4804 12.8946 20.2929 12.7071C20.1054 12.5196 20 12.2652 20 12V8C20 7.73478 20.1054 7.48043 20.2929 7.29289C20.4804 7.10536 20.7348 7 21 7Z" fill="#333333"/>
<path d="M13 18C13 18.2652 12.8946 18.5196 12.7071 18.7071C12.5196 18.8946 12.2652 19 12 19C11.7348 19 11.4804 18.8946 11.2929 18.7071C11.1054 18.5196 11 18.2652 11 18C11 17.7348 11.1054 17.4804 11.2929 17.2929C11.4804 17.1054 11.7348 17 12 17C12.2652 17 12.5196 17.1054 12.7071 17.2929C12.8946 17.4804 13 17.7348 13 18ZM13 22C13 22.2652 12.8946 22.5196 12.7071 22.7071C12.5196 22.8946 12.2652 23 12 23C11.7348 23 11.4804 22.8946 11.2929 22.7071C11.1054 22.5196 11 22.2652 11 22C11 21.7348 11.1054 21.4804 11.2929 21.2929C11.4804 21.1054 11.7348 21 12 21C12.2652 21 12.5196 21.1054 12.7071 21.2929C12.8946 21.4804 13 21.7348 13 22ZM18 18C18 18.2652 17.8946 18.5196 17.7071 18.7071C17.5196 18.8946 17.2652 19 17 19C16.7348 19 16.4804 18.8946 16.2929 18.7071C16.1054 18.5196 16 18.2652 16 18C16 17.7348 16.1054 17.4804 16.2929 17.2929C16.4804 17.1054 16.7348 17 17 17C17.2652 17 17.5196 17.1054 17.7071 17.2929C17.8946 17.4804 18 17.7348 18 18ZM18 22C18 22.2652 17.8946 22.5196 17.7071 22.7071C17.5196 22.8946 17.2652 23 17 23C16.7348 23 16.4804 22.8946 16.2929 22.7071C16.1054 22.5196 16 22.2652 16 22C16 21.7348 16.1054 21.4804 16.2929 21.2929C16.4804 21.1054 16.7348 21 17 21C17.2652 21 17.5196 21.1054 17.7071 21.2929C17.8946 21.4804 18 21.7348 18 22ZM23 18C23 18.2652 22.8946 18.5196 22.7071 18.7071C22.5196 18.8946 22.2652 19 22 19C21.7348 19 21.4804 18.8946 21.2929 18.7071C21.1054 18.5196 21 18.2652 21 18C21 17.7348 21.1054 17.4804 21.2929 17.2929C21.4804 17.1054 21.7348 17 22 17C22.2652 17 22.5196 17.1054 22.7071 17.2929C22.8946 17.4804 23 17.7348 23 18ZM23 22C23 22.2652 22.8946 22.5196 22.7071 22.7071C22.5196 22.8946 22.2652 23 22 23C21.7348 23 21.4804 22.8946 21.2929 22.7071C21.1054 22.5196 21 22.2652 21 22C21 21.7348 21.1054 21.4804 21.2929 21.2929C21.4804 21.1054 21.7348 21 22 21C22.2652 21 22.5196 21.1054 22.7071 21.2929C22.8946 21.4804 23 21.7348 23 22Z" fill="#333333"/>
</svg>
