<svg width="34" height="34" viewBox="0 0 34 34" fill="none" xmlns="http://www.w3.org/2000/svg">
<circle cx="17" cy="17" r="17" fill="#FEFEFE"/>
<path d="M25.7504 13.2502C25.7508 11.9976 25.2811 10.7906 24.4342 9.86778C23.5873 8.94497 22.4249 8.37362 21.177 8.26677C19.929 8.15992 18.6864 8.52535 17.695 9.29076C16.7035 10.0562 16.0354 11.1658 15.8229 12.4002C15.6328 13.0171 15.4087 13.623 15.1517 14.2152L12.1829 17.1839C12.0957 17.2714 12.0364 17.3828 12.0124 17.5039C11.9885 17.6251 12.0009 17.7507 12.0483 17.8647C12.0956 17.9788 12.1757 18.0763 12.2784 18.1449C12.3812 18.2135 12.5019 18.2501 12.6254 18.2502H12.7204L10.8667 20.1039L10.8492 20.1114C10.817 20.1204 10.7838 20.125 10.7504 20.1252C10.2282 20.1253 9.71919 20.2889 9.29474 20.5931C8.87029 20.8973 8.55174 21.3267 8.3838 21.8211C8.21586 22.3156 8.20696 22.8502 8.35835 23.35C8.50974 23.8497 8.81383 24.2895 9.22792 24.6077C9.29042 24.656 9.34542 24.7114 9.39292 24.7739C9.71112 25.1881 10.151 25.4922 10.6509 25.6436C11.1508 25.7949 11.6855 25.7859 12.18 25.6178C12.6745 25.4497 13.104 25.131 13.4081 24.7063C13.7121 24.2817 13.8756 23.7725 13.8754 23.2502C13.8763 23.2043 13.8804 23.1714 13.8879 23.1514L13.8967 23.1352L15.7504 21.2827V21.3752C15.7502 21.4989 15.7867 21.62 15.8554 21.723C15.9241 21.826 16.0218 21.9063 16.1361 21.9537C16.2504 22.001 16.3763 22.0134 16.4977 21.9892C16.619 21.965 16.7305 21.9053 16.8179 21.8177L19.7629 18.8714C20.2292 18.6639 20.8629 18.4177 21.7079 18.1589C22.8466 17.9368 23.8726 17.3255 24.6101 16.43C25.3476 15.5344 25.7507 14.4103 25.7504 13.2502ZM15.7504 19.5152L13.0104 22.2539C12.7555 22.5221 12.6171 22.8803 12.6254 23.2502C12.6254 23.5113 12.5436 23.7658 12.3915 23.978C12.2394 24.1902 12.0247 24.3495 11.7774 24.4335C11.5302 24.5175 11.2629 24.5219 11.013 24.4462C10.7631 24.3705 10.5432 24.2185 10.3842 24.0114C10.2704 23.8634 10.1376 23.731 9.98917 23.6177C9.78161 23.4588 9.6291 23.2388 9.55308 22.9887C9.47707 22.7385 9.48138 22.4709 9.56541 22.2234C9.64944 21.9758 9.80896 21.7609 10.0215 21.6087C10.2341 21.4566 10.489 21.3749 10.7504 21.3752C11.0604 21.3752 11.4504 21.2877 11.7504 20.9877L14.4879 18.2502H15.7504V19.5152ZM20.7504 9.50017C21.6855 9.49917 22.5872 9.84755 23.2787 10.477C23.9702 11.1064 24.4016 11.9714 24.4883 12.9025C24.575 13.8335 24.3107 14.7633 23.7473 15.5096C23.1839 16.2559 22.3621 16.7647 21.4429 16.9364L21.3754 16.9527C20.4042 17.2489 19.6767 17.5352 19.1404 17.7814C19.0731 17.812 19.0117 17.8544 18.9592 17.9064L17.0004 19.8677V17.6252C17.0004 17.4594 16.9346 17.3004 16.8174 17.1832C16.7002 17.066 16.5412 17.0002 16.3754 17.0002H14.1342L16.1167 15.0177C16.1693 14.9649 16.2121 14.903 16.2429 14.8352C16.4779 14.3214 16.7492 13.6339 17.0292 12.7302L17.0492 12.6452C17.1927 11.7671 17.6438 10.9686 18.3218 10.3925C18.9999 9.81636 19.8607 9.50008 20.7504 9.50017Z" fill="#333333"/>
<path d="M15.7504 19.5152L13.0104 22.2539C12.7555 22.5221 12.6171 22.8803 12.6254 23.2502C12.6254 23.5113 12.5436 23.7658 12.3915 23.978C12.2394 24.1902 12.0247 24.3495 11.7774 24.4335C11.5302 24.5175 11.2629 24.5219 11.013 24.4462C10.7631 24.3705 10.5432 24.2185 10.3842 24.0114C10.2704 23.8634 10.1376 23.731 9.98917 23.6177C9.78161 23.4588 9.6291 23.2388 9.55308 22.9887C9.47707 22.7385 9.48138 22.4709 9.56541 22.2234C9.64944 21.9758 9.80896 21.7609 10.0215 21.6087C10.2341 21.4566 10.489 21.3749 10.7504 21.3752C11.0604 21.3752 11.4504 21.2877 11.7504 20.9877L14.4879 18.2502H15.7504V19.5152Z" fill="#EFFAE5"/>
<path d="M20.7504 9.50017C21.6855 9.49917 22.5872 9.84755 23.2787 10.477C23.9702 11.1064 24.4016 11.9714 24.4883 12.9025C24.575 13.8335 24.3107 14.7633 23.7473 15.5096C23.1839 16.2559 22.3621 16.7647 21.4429 16.9364L21.3754 16.9527C20.4042 17.2489 19.6767 17.5352 19.1404 17.7814C19.0731 17.812 19.0117 17.8544 18.9592 17.9064L17.0004 19.8677V17.6252C17.0004 17.4594 16.9346 17.3004 16.8174 17.1832C16.7002 17.066 16.5412 17.0002 16.3754 17.0002H14.1342L16.1167 15.0177C16.1693 14.9649 16.2121 14.903 16.2429 14.8352C16.4779 14.3214 16.7492 13.6339 17.0292 12.7302L17.0492 12.6452C17.1927 11.7671 17.6438 10.9686 18.3218 10.3925C18.9999 9.81636 19.8607 9.50008 20.7504 9.50017Z" fill="#333333"/>
</svg>
