<svg width="34" height="34" viewBox="0 0 34 34" fill="none" xmlns="http://www.w3.org/2000/svg">
<circle cx="17" cy="17" r="17" fill="white"/>
<path d="M13.5718 15.3337C14.1434 16.4978 14.7534 17.5878 14.6134 18.9287C14.3876 21.0728 11.7884 21.8795 10.1251 22.867C9.03593 23.5145 9.44343 25.3337 10.7801 25.3337C12.4001 25.3337 13.8468 25.2045 15.3093 24.517L18.1759 22.7528C18.5743 22.5653 19.0759 22.6453 19.5001 22.8337" fill="#EFFAE5"/>
<path d="M20.3418 15.3337C19.7584 16.4978 19.1351 17.5878 19.2793 18.9287C19.5093 21.0728 22.1643 21.8795 23.8618 22.867C24.9734 23.5145 24.5576 25.3337 23.1934 25.3337C21.5384 25.3337 20.0609 25.2045 18.5684 24.517L15.6401 22.7528C15.2984 22.5953 14.8818 22.627 14.5001 22.7528M15.3334 10.3337C15.3334 10.7757 15.509 11.1996 15.8216 11.5122C16.1341 11.8247 16.5581 12.0003 17.0001 12.0003C17.4421 12.0003 17.866 11.8247 18.1786 11.5122C18.4912 11.1996 18.6668 10.7757 18.6668 10.3337C18.6668 9.89163 18.4912 9.46771 18.1786 9.15515C17.866 8.84259 17.4421 8.66699 17.0001 8.66699C16.5581 8.66699 16.1341 8.84259 15.8216 9.15515C15.509 9.46771 15.3334 9.89163 15.3334 10.3337Z" fill="#EFFAE5"/>
<path d="M9.5001 20.3337C11.5384 20.3337 12.4534 18.0795 12.7443 16.5253C12.8209 16.1187 12.9443 15.7145 13.2134 15.4012C13.6825 14.8565 14.2637 14.4196 14.9173 14.1203C15.5708 13.821 16.2813 13.6664 17.0001 13.667C18.5134 13.667 19.8701 14.3395 20.7868 15.4012C21.0559 15.7145 21.1793 16.1187 21.2559 16.5245C21.5476 18.0795 22.4618 20.3337 24.5001 20.3337" fill="#EFFAE5"/>
<path d="M13.5718 15.3337C14.1434 16.4978 14.7534 17.5878 14.6134 18.9287C14.3876 21.0728 11.7884 21.8795 10.1251 22.867C9.03593 23.5145 9.44343 25.3337 10.7801 25.3337C12.4001 25.3337 13.8468 25.2045 15.3093 24.517L18.1759 22.7528C18.5743 22.5653 19.0759 22.6453 19.5001 22.8337M20.3418 15.3337C19.7584 16.4978 19.1351 17.5878 19.2793 18.9287C19.5093 21.0728 22.1643 21.8795 23.8618 22.867C24.9734 23.5145 24.5576 25.3337 23.1934 25.3337C21.5384 25.3337 20.0609 25.2045 18.5684 24.517L15.6401 22.7528C15.2984 22.5953 14.8818 22.627 14.5001 22.7528M9.5001 20.3337C11.5384 20.3337 12.4534 18.0795 12.7443 16.5253C12.8209 16.1187 12.9443 15.7145 13.2134 15.4012C13.6825 14.8565 14.2637 14.4196 14.9173 14.1203C15.5708 13.821 16.2813 13.6664 17.0001 13.667C18.5134 13.667 19.8701 14.3395 20.7868 15.4012C21.0559 15.7145 21.1793 16.1187 21.2559 16.5245C21.5476 18.0795 22.4618 20.3337 24.5001 20.3337M15.3334 10.3337C15.3334 10.7757 15.509 11.1996 15.8216 11.5122C16.1341 11.8247 16.5581 12.0003 17.0001 12.0003C17.4421 12.0003 17.866 11.8247 18.1786 11.5122C18.4912 11.1996 18.6668 10.7757 18.6668 10.3337C18.6668 9.89163 18.4912 9.46771 18.1786 9.15515C17.866 8.84259 17.4421 8.66699 17.0001 8.66699C16.5581 8.66699 16.1341 8.84259 15.8216 9.15515C15.509 9.46771 15.3334 9.89163 15.3334 10.3337Z" stroke="#333333" stroke-width="1.5" stroke-linecap="round" stroke-linejoin="round"/>
</svg>
