<svg width="34" height="34" viewBox="0 0 34 34" fill="none" xmlns="http://www.w3.org/2000/svg">
<circle cx="17" cy="17" r="17" fill="white"/>
<path fill-rule="evenodd" clip-rule="evenodd" d="M13.9284 7.1394C14.0876 7.1394 14.2402 7.20262 14.3527 7.31514C14.4652 7.42766 14.5284 7.58027 14.5284 7.7394V11.6994C14.5284 11.8585 14.4652 12.0111 14.3527 12.1237C14.2402 12.2362 14.0876 12.2994 13.9284 12.2994C13.7693 12.2994 13.6167 12.2362 13.5042 12.1237C13.3916 12.0111 13.3284 11.8585 13.3284 11.6994V7.7394C13.3284 7.58027 13.3916 7.42766 13.5042 7.31514C13.6167 7.20262 13.7693 7.1394 13.9284 7.1394Z" fill="#EFFAE5"/>
<path fill-rule="evenodd" clip-rule="evenodd" d="M9.66843 10.9428C10.2349 10.8075 10.811 10.8711 11.4041 11.1119C11.5209 11.1593 11.6383 11.2136 11.7564 11.2746C12.145 11.4758 12.4586 11.6046 12.7202 11.6878C12.8524 11.7299 12.9714 11.7604 13.08 11.7828C13.4028 11.85 13.6596 11.8512 13.9698 11.8512V13.0469V13.0512H13.9578C13.9014 13.0512 13.8433 13.0512 13.7831 13.0506C13.6879 13.0498 13.5878 13.0474 13.4819 13.0415C13.2878 13.0306 13.0745 13.0074 12.837 12.9582C12.5975 12.9085 12.34 12.8342 12.0534 12.725C11.7966 12.6271 11.5164 12.5013 11.205 12.3402C11.0996 12.2858 10.9994 12.2408 10.9039 12.2042C10.5218 12.0578 10.2143 12.046 9.94743 12.1098C9.59703 12.1938 9.22683 12.4278 8.80023 12.8682C7.82103 13.881 7.51683 14.9238 7.41063 15.7254C7.35063 16.7118 7.52883 18.6594 8.41143 20.5632C8.71143 21.2112 9.13743 22.1052 9.65703 22.8054C9.91623 23.1546 10.1766 23.4234 10.4268 23.589C10.6698 23.7492 10.8714 23.793 11.0544 23.7618C12.9282 23.439 13.2804 23.4312 13.6458 23.4312H13.9251H13.9366H14.268V23.4393V24.6312H13.6284C13.3752 24.6312 13.0764 24.6312 11.2584 24.9444C10.6944 25.0416 10.1862 24.8682 9.76563 24.5904C9.35223 24.3174 8.99523 23.9268 8.69343 23.5206C8.09043 22.7088 7.61883 21.7062 7.32303 21.0678C6.34023 18.9486 6.13983 16.7856 6.21423 15.6294L6.21603 15.6102L6.21843 15.591C6.34563 14.6046 6.72483 13.2876 7.93803 12.0342C8.44503 11.5098 9.00723 11.1012 9.66843 10.9428Z" fill="#EFFAE5"/>
<path fill-rule="evenodd" clip-rule="evenodd" d="M11.3844 9.4458C12.1177 10.1472 12.5767 10.9703 12.7202 11.6878C12.7523 11.8486 12.7686 12.0042 12.7686 12.1518C12.7686 12.3109 12.8318 12.4635 12.9444 12.5761C13.0569 12.6886 13.2095 12.7518 13.3686 12.7518C13.5278 12.7518 13.6804 12.6886 13.7929 12.5761C13.9054 12.4635 13.9686 12.3109 13.9686 12.1518C13.9686 10.9218 13.2678 9.5868 12.2136 8.5782C11.1468 7.5588 9.64623 6.7998 7.93803 6.7998C7.7789 6.7998 7.62629 6.86302 7.51377 6.97554C7.40125 7.08806 7.33803 7.24067 7.33803 7.3998C7.33803 7.55893 7.40125 7.71155 7.51377 7.82407C7.62629 7.93659 7.7789 7.9998 7.93803 7.9998C8.15125 7.9998 8.36117 8.01484 8.56701 8.0435C9.66098 8.19585 10.6396 8.73327 11.3844 9.4458Z" fill="#EFFAE5"/>
<path fill-rule="evenodd" clip-rule="evenodd" d="M7.74483 6.8052C7.90268 6.78552 8.06189 6.82932 8.18745 6.92698C8.31302 7.02464 8.39466 7.16817 8.41443 7.326C8.44594 7.57766 8.49768 7.81661 8.56701 8.0435C9.01538 9.51079 10.1994 10.4741 11.4041 11.1119C11.7586 11.2996 12.115 11.4591 12.4548 11.595C12.6026 11.6541 12.7208 11.7695 12.7835 11.9158C12.8462 12.0621 12.8482 12.2273 12.789 12.375C12.7299 12.5228 12.6145 12.641 12.4682 12.7036C12.3365 12.7601 12.1893 12.7673 12.0534 12.725C12.0385 12.7203 12.0237 12.7151 12.009 12.7092C11.6696 12.5735 11.2929 12.4072 10.9039 12.2042C9.32011 11.3775 7.53231 9.94103 7.22403 7.4748C7.20435 7.31696 7.24815 7.15775 7.34581 7.03219C7.44347 6.90662 7.587 6.82498 7.74483 6.8052ZM18.0576 10.9416C17.3664 10.7832 16.6572 10.902 15.9156 11.2704C15.3036 11.574 14.8674 11.7144 14.5254 11.7822C14.1834 11.85 13.9122 11.8512 13.5894 11.8512C13.4303 11.8512 13.2777 11.9144 13.1652 12.0269C13.0526 12.1395 12.9894 12.2921 12.9894 12.4512C12.9894 12.6103 13.0526 12.7629 13.1652 12.8755C13.252 12.9623 13.3628 13.0198 13.4819 13.0415C13.5172 13.0479 13.5531 13.0512 13.5894 13.0512H13.6008C13.6598 13.0512 13.7205 13.0512 13.7831 13.0506C13.8435 13.0501 13.9057 13.049 13.9698 13.0469C14.203 13.0394 14.4628 13.0182 14.7588 12.9594C15.2274 12.8664 15.7644 12.6846 16.4484 12.345C17.0028 12.0702 17.4276 12.0282 17.79 12.111C18.1656 12.1974 18.5562 12.4362 19.0002 12.8772C19.9308 13.8007 20.2747 14.7467 20.4115 15.5102C20.4261 15.5915 20.4383 15.6707 20.4486 15.7476C20.472 15.9034 20.5556 16.0438 20.6816 16.1385C20.8075 16.2331 20.9657 16.2744 21.1218 16.2535C21.278 16.2325 21.4196 16.151 21.5162 16.0265C21.6127 15.9019 21.6564 15.7445 21.6378 15.588C21.5046 14.5962 21.1074 13.278 19.8456 12.0252C19.317 11.5008 18.7356 11.0964 18.0576 10.9416ZM18.6246 23.1678C18.5679 23.1132 18.5009 23.0702 18.4275 23.0415C18.3542 23.0127 18.2759 22.9987 18.1971 23.0002C18.1183 23.0017 18.0406 23.0187 17.9684 23.0502C17.8962 23.0818 17.8309 23.1272 17.7762 23.184C17.6596 23.3051 17.5478 23.4055 17.4406 23.487C17.13 23.723 16.8576 23.8005 16.6176 23.7612C15.2045 23.5274 14.6235 23.4592 14.268 23.4393C14.137 23.432 14.0367 23.4312 13.9366 23.4312C13.9333 23.4312 13.93 23.4312 13.9266 23.4312L13.9251 23.4312C13.7665 23.4316 13.6145 23.4948 13.5024 23.6069C13.3898 23.7195 13.3266 23.8721 13.3266 24.0312C13.3266 24.1903 13.3898 24.3429 13.5024 24.4555C13.6149 24.568 13.7675 24.6312 13.9266 24.6312H13.9434C14.2116 24.6312 14.5236 24.6312 16.4214 24.945C17.3346 25.0962 18.0924 24.585 18.6408 24.0162C18.6956 23.9594 18.7386 23.8924 18.7674 23.819C18.7962 23.7456 18.8103 23.6672 18.8088 23.5883C18.8072 23.5095 18.7902 23.4317 18.7586 23.3594C18.727 23.2872 18.6815 23.2225 18.6246 23.1678Z" fill="#EFFAE5"/>
<path fill-rule="evenodd" clip-rule="evenodd" d="M22.1904 12.2616C21.7302 13.0921 21.5307 13.9539 21.5694 14.6577C21.5813 14.8742 21.6157 15.0757 21.672 15.2568C21.6954 15.3321 21.7038 15.4112 21.6966 15.4896C21.6894 15.5681 21.6669 15.6444 21.6302 15.7142C21.5936 15.7839 21.5435 15.8458 21.4829 15.8962C21.4224 15.9466 21.3525 15.9846 21.2772 16.008C21.202 16.0314 21.1229 16.0398 21.0444 16.0326C20.9659 16.0254 20.8896 16.0028 20.8199 15.9662C20.7501 15.9295 20.6883 15.8795 20.6378 15.8189C20.5874 15.7584 20.5494 15.6885 20.526 15.6132C20.1606 14.4378 20.4342 12.9552 21.141 11.6796C21.8568 10.3884 23.0646 9.219 24.696 8.7114C24.7713 8.688 24.8504 8.67965 24.9289 8.68683C25.0073 8.694 25.0836 8.71657 25.1534 8.75323C25.2232 8.78989 25.285 8.83993 25.3354 8.90049C25.3858 8.96106 25.4238 9.03096 25.4472 9.1062C25.4706 9.18145 25.479 9.26057 25.4718 9.33905C25.4646 9.41752 25.4421 9.49382 25.4054 9.56357C25.3688 9.63333 25.3187 9.69518 25.2581 9.74559C25.1976 9.79601 25.1277 9.834 25.0524 9.8574C24.8094 9.93292 24.5773 10.0275 24.3566 10.1385C23.4093 10.6148 22.6722 11.393 22.1904 12.2616Z" fill="#EFFAE5"/>
<path fill-rule="evenodd" clip-rule="evenodd" d="M23.4318 13.0272C23.1927 13.3773 22.9249 13.6835 22.6441 13.9404C22.6142 13.9677 22.5841 13.9945 22.554 14.0208C22.2324 14.3002 21.8965 14.5153 21.5694 14.6577C21.3706 14.7442 21.1751 14.8039 20.988 14.835C20.9093 14.8467 20.8337 14.874 20.7656 14.9153C20.6976 14.9565 20.6384 15.0109 20.5915 15.0752C20.5447 15.1395 20.5111 15.2125 20.4927 15.29C20.4743 15.3674 20.4715 15.4477 20.4845 15.5263C20.4975 15.6048 20.526 15.6799 20.5683 15.7474C20.6106 15.8148 20.6659 15.8731 20.7309 15.9189C20.796 15.9648 20.8695 15.9972 20.9472 16.0144C21.025 16.0315 21.1053 16.033 21.1836 16.0188C21.9443 15.8928 22.7004 15.4886 23.3615 14.908C23.3853 14.8871 23.409 14.8659 23.4326 14.8445C23.7987 14.5125 24.1339 14.1264 24.4224 13.704C25.2552 12.4848 25.7586 10.8804 25.4796 9.195C25.4668 9.11724 25.4388 9.04276 25.3971 8.97582C25.3555 8.90889 25.3011 8.85081 25.237 8.8049C25.173 8.75899 25.1005 8.72615 25.0237 8.70826C24.9469 8.69036 24.8674 8.68776 24.7896 8.70061C24.7119 8.71345 24.6374 8.74148 24.5705 8.78311C24.5035 8.82474 24.4454 8.87914 24.3995 8.94321C24.3536 9.00728 24.3208 9.07977 24.3029 9.15654C24.285 9.2333 24.2824 9.31284 24.2952 9.3906C24.3368 9.64159 24.3566 9.89146 24.3566 10.1385C24.3565 11.199 23.9924 12.2072 23.4318 13.0272Z" fill="#EFFAE5"/>
<path fill-rule="evenodd" clip-rule="evenodd" d="M21.6684 16.3998C21.2706 16.3998 20.8891 16.5578 20.6078 16.8391C20.3265 17.1204 20.1684 17.502 20.1684 17.8998C20.1684 18.2976 20.3265 18.6792 20.6078 18.9605C20.8891 19.2418 21.2706 19.3998 21.6684 19.3998C22.0663 19.3998 22.4478 19.2418 22.7291 18.9605C23.0104 18.6792 23.1684 18.2976 23.1684 17.8998C23.1684 17.502 23.0104 17.1204 22.7291 16.8391C22.4478 16.5578 22.0663 16.3998 21.6684 16.3998ZM18.9684 17.8998C18.9684 17.5452 19.0383 17.1941 19.174 16.8666C19.3096 16.539 19.5085 16.2413 19.7592 15.9906C19.9516 15.7983 20.1716 15.6364 20.4115 15.5102C20.4843 15.4719 20.5589 15.4369 20.6352 15.4053C20.9628 15.2696 21.3139 15.1998 21.6684 15.1998C22.023 15.1998 22.3741 15.2696 22.7017 15.4053C22.7925 15.4429 22.881 15.4854 22.9668 15.5325C23.1907 15.6553 23.3964 15.8094 23.5776 15.9906C23.7626 16.1755 23.9193 16.386 24.0433 16.6152C24.0874 16.6967 24.1273 16.7806 24.1629 16.8666C24.2848 17.1609 24.3536 17.4742 24.3663 17.7919C24.3677 17.8278 24.3684 17.8638 24.3684 17.8998C24.3684 18.2107 24.3148 18.5161 24.2127 18.8037C24.0796 19.1783 23.8641 19.5225 23.5776 19.809C23.1054 20.2812 22.4762 20.5605 21.8127 20.596C21.7647 20.5985 21.7167 20.5998 21.6684 20.5998C20.9524 20.5998 20.2656 20.3153 19.7592 19.809C19.4728 19.5225 19.2573 19.1783 19.1242 18.8037C19.0221 18.5161 18.9684 18.2107 18.9684 17.8998Z" fill="#EFFAE5"/>
<path fill-rule="evenodd" clip-rule="evenodd" d="M25.3074 13.4538C25.9814 13.6956 26.5317 14.1953 26.8373 14.8428C27.1429 15.4904 27.1788 16.2328 26.937 16.9068C26.9104 16.981 26.8695 17.0492 26.8165 17.1076C26.7636 17.1659 26.6996 17.2133 26.6284 17.2469C26.5571 17.2806 26.4799 17.2999 26.4012 17.3037C26.3225 17.3075 26.2438 17.2958 26.1696 17.2692C26.0955 17.2426 26.0272 17.2017 25.9689 17.1487C25.9105 17.0958 25.8632 17.0318 25.8295 16.9606C25.7958 16.8893 25.7766 16.8121 25.7727 16.7334C25.7689 16.6547 25.7806 16.576 25.8072 16.5018L25.8092 16.4964C25.9415 16.1234 25.9211 15.7131 25.7522 15.355C25.5825 14.9952 25.2769 14.7175 24.9024 14.583C24.528 14.4485 24.1155 14.4683 23.7556 14.638C23.6386 14.6932 23.5302 14.7628 23.4326 14.8445C23.4082 14.8649 23.3845 14.8861 23.3615 14.908C23.1936 15.0677 23.0634 15.2657 22.9836 15.4878C22.9786 15.5029 22.973 15.5178 22.9668 15.5325C22.942 15.5914 22.9079 15.646 22.8657 15.6942C22.813 15.7545 22.7488 15.8036 22.6768 15.8387C22.6049 15.8737 22.5266 15.894 22.4467 15.8984C22.3668 15.9028 22.2868 15.8911 22.2115 15.8641C22.1361 15.837 22.0669 15.7952 22.008 15.741C21.9491 15.6869 21.9016 15.6215 21.8683 15.5487C21.835 15.4759 21.8167 15.3971 21.8143 15.3171C21.8119 15.2371 21.8256 15.1575 21.8544 15.0828C22.0011 14.6744 22.2424 14.3114 22.554 14.0208C22.5834 13.9933 22.6134 13.9665 22.6441 13.9404C22.8244 13.7867 23.0256 13.6561 23.2436 13.5533C23.8912 13.2478 24.6335 13.212 25.3074 13.4538Z" fill="#EFFAE5"/>
<path fill-rule="evenodd" clip-rule="evenodd" d="M24.3522 16.5054C24.8304 16.3682 25.3345 16.3666 25.8092 16.4964C25.9442 16.5333 26.0769 16.5809 26.206 16.639C26.7886 16.9015 27.2593 17.362 27.5344 17.9388C27.8095 18.5156 27.8711 19.1712 27.7084 19.7892C27.5572 20.3631 27.2216 20.8699 26.7552 21.2328C26.7194 21.2606 26.6828 21.2877 26.6454 21.3138C26.5149 21.401 26.3553 21.4335 26.201 21.4044C26.0467 21.3753 25.91 21.2868 25.8202 21.1581C25.7303 21.0293 25.6946 20.8704 25.7205 20.7156C25.7465 20.5607 25.8321 20.4222 25.959 20.3298C26.0929 20.2362 26.2104 20.1214 26.307 19.9903C26.3296 19.9597 26.351 19.9282 26.3711 19.8959C26.478 19.7251 26.5493 19.5345 26.5809 19.3355C26.6124 19.1365 26.6036 18.9332 26.5548 18.7377C26.5061 18.5422 26.4184 18.3585 26.2971 18.1976C26.1758 18.0367 26.0234 17.9019 25.8488 17.8012C25.6743 17.7006 25.4813 17.6361 25.2813 17.6117C25.0813 17.5872 24.8784 17.6033 24.6848 17.659C24.5736 17.691 24.4667 17.7357 24.3663 17.7919C24.2918 17.8337 24.2208 17.8818 24.1542 17.9358C24.0931 17.9855 24.0228 18.0227 23.9472 18.0452C23.8717 18.0678 23.7925 18.0752 23.7141 18.0671C23.6357 18.0591 23.5597 18.0356 23.4904 17.9982C23.421 17.9607 23.3598 17.9099 23.31 17.8488C23.2603 17.7877 23.2231 17.7173 23.2006 17.6418C23.1781 17.5663 23.1706 17.4871 23.1787 17.4087C23.1868 17.3303 23.2102 17.2543 23.2477 17.1849C23.2851 17.1156 23.3359 17.0543 23.397 17.0046C23.5936 16.8449 23.8112 16.7139 24.0433 16.6152C24.1437 16.5725 24.2469 16.5358 24.3522 16.5054ZM19.2684 19.9998C18.8706 19.9998 18.4891 20.1578 18.2078 20.4391C17.9265 20.7204 17.7684 21.102 17.7684 21.4998C17.7684 21.8976 17.9265 22.2792 18.2078 22.5605C18.4891 22.8418 18.8706 22.9998 19.2684 22.9998C19.6663 22.9998 20.0478 22.8418 20.3291 22.5605C20.6104 22.2792 20.7684 21.8976 20.7684 21.4998C20.7684 21.102 20.6104 20.7204 20.3291 20.4391C20.0478 20.1578 19.6663 19.9998 19.2684 19.9998ZM16.5684 21.4998C16.5684 20.7837 16.8529 20.097 17.3592 19.5906C17.8315 19.1184 18.4607 18.8391 19.1242 18.8037C19.1721 18.8011 19.2202 18.7998 19.2684 18.7998C19.9845 18.7998 20.6713 19.0843 21.1776 19.5906C21.4641 19.8771 21.6796 20.2213 21.8127 20.596C21.9148 20.8835 21.9684 21.1889 21.9684 21.4998C21.9684 21.8107 21.9148 22.1162 21.8127 22.4037C21.6796 22.7783 21.4641 23.1225 21.1776 23.409C20.6713 23.9153 19.9845 24.1998 19.2684 24.1998C18.59 24.1998 17.9379 23.9445 17.4406 23.487C17.413 23.4616 17.3859 23.4356 17.3592 23.409C16.8529 22.9026 16.5684 22.2159 16.5684 21.4998Z" fill="#EFFAE5"/>
<path fill-rule="evenodd" clip-rule="evenodd" d="M21.6684 23.5998C21.2706 23.5998 20.8891 23.7578 20.6078 24.0391C20.3265 24.3204 20.1684 24.702 20.1684 25.0998C20.1684 25.4976 20.3265 25.8792 20.6078 26.1605C20.8891 26.4418 21.2706 26.5998 21.6684 26.5998C22.0663 26.5998 22.4478 26.4418 22.7291 26.1605C23.0104 25.8792 23.1684 25.4976 23.1684 25.0998C23.1684 24.702 23.0104 24.3204 22.7291 24.0391C22.4478 23.7578 22.0663 23.5998 21.6684 23.5998ZM18.9684 25.0998C18.9684 24.7452 19.0383 24.3941 19.174 24.0666C19.3096 23.739 19.5085 23.4413 19.7592 23.1906C20.01 22.9399 20.3076 22.741 20.6352 22.6053C20.9628 22.4696 21.3139 22.3998 21.6684 22.3998C21.7166 22.3998 21.7647 22.4011 21.8127 22.4037C22.1179 22.42 22.4186 22.4881 22.7017 22.6053C23.0293 22.741 23.3269 22.9399 23.5776 23.1906C23.8283 23.4413 24.0272 23.739 24.1629 24.0666C24.1806 24.1093 24.1972 24.1525 24.2127 24.196C24.3156 24.4858 24.3684 24.7915 24.3684 25.0998C24.3684 25.4965 24.2811 25.8842 24.1172 26.2373C23.9851 26.5215 23.8035 26.7832 23.5776 27.009C23.0713 27.5153 22.3845 27.7998 21.6684 27.7998C20.9524 27.7998 20.2656 27.5153 19.7592 27.009C19.2529 26.5026 18.9684 25.8159 18.9684 25.0998Z" fill="#EFFAE5"/>
<path fill-rule="evenodd" clip-rule="evenodd" d="M25.3008 22.9794C25.3273 22.9052 25.3681 22.8369 25.421 22.7784C25.4739 22.72 25.5377 22.6725 25.6089 22.6388C25.6801 22.605 25.7573 22.5856 25.836 22.5817C25.9147 22.5777 25.9934 22.5893 26.0676 22.6158C26.1975 22.6622 26.3232 22.7183 26.4438 22.7835C26.6767 22.9094 26.8906 23.0693 27.078 23.2585C27.3624 23.5457 27.5787 23.893 27.711 24.2749C27.8433 24.6569 27.8881 25.0636 27.8422 25.4652C27.7963 25.8667 27.6609 26.2529 27.4458 26.5951C27.2308 26.9373 26.9417 27.2269 26.5998 27.4425C26.2579 27.658 25.872 27.7941 25.4705 27.8406C25.069 27.8871 24.6622 27.8429 24.28 27.7113C23.8979 27.5796 23.5502 27.3638 23.2626 27.0798C23.2051 27.0248 23.1591 26.9589 23.1272 26.8859C23.0954 26.8129 23.0784 26.7344 23.0773 26.6548C23.0761 26.5752 23.0908 26.4961 23.1205 26.4223C23.1502 26.3484 23.1943 26.2812 23.2503 26.2245C23.3062 26.1679 23.3729 26.1229 23.4463 26.0923C23.5198 26.0617 23.5987 26.046 23.6783 26.0461C23.7579 26.0462 23.8367 26.0622 23.91 26.0931C23.9834 26.124 24.0499 26.1692 24.1056 26.226C24.1095 26.2298 24.1133 26.2335 24.1172 26.2373C24.2746 26.3895 24.4636 26.5054 24.6708 26.5768C24.8831 26.65 25.1091 26.6746 25.3321 26.6488C25.5551 26.6229 25.7695 26.5474 25.9595 26.4276C26.1494 26.3079 26.3101 26.1471 26.4296 25.957C26.549 25.7669 26.6243 25.5524 26.6499 25.3293C26.6754 25.1063 26.6506 24.8803 26.5771 24.6681C26.5037 24.4559 26.3836 24.263 26.2256 24.1034C26.0676 23.9438 25.8759 23.8218 25.6644 23.7462C25.6437 23.7388 25.6235 23.7303 25.6038 23.7208C25.5528 23.696 25.5055 23.6641 25.4633 23.626C25.4048 23.5731 25.3573 23.5092 25.3235 23.4379C25.2898 23.3666 25.2704 23.2894 25.2665 23.2106C25.2626 23.1318 25.2743 23.0537 25.3008 22.9794Z" fill="#EFFAE5"/>
<path d="M13.9698 13.0469V13.0512H13.9578C13.9014 13.0512 13.8433 13.0512 13.7831 13.0506C13.7205 13.0512 13.6598 13.0512 13.6008 13.0512H13.5894C13.5531 13.0512 13.5172 13.0479 13.4819 13.0415C13.2878 13.0306 13.0745 13.0074 12.837 12.9582C12.5975 12.9085 12.34 12.8342 12.0534 12.725C12.0385 12.7203 12.0237 12.7151 12.009 12.7092C11.6696 12.5735 11.2929 12.4072 10.9039 12.2042C10.5218 12.0578 10.2143 12.046 9.94743 12.1098C9.59703 12.1938 9.22683 12.4278 8.80023 12.8682C7.82103 13.881 7.51683 14.9238 7.41063 15.7254C7.35063 16.7118 7.52883 18.6594 8.41143 20.5632C8.71143 21.2112 9.13743 22.1052 9.65703 22.8054C9.91623 23.1546 10.1766 23.4234 10.4268 23.589C10.6698 23.7492 10.8714 23.793 11.0544 23.7618C12.9282 23.439 13.2804 23.4312 13.6458 23.4312H13.9251L13.9266 23.4312L13.9366 23.4312H14.268V23.4393C14.6235 23.4592 15.2045 23.5274 16.6176 23.7612C16.8576 23.8005 17.13 23.723 17.4406 23.487C17.413 23.4616 17.3859 23.4356 17.3592 23.409C16.8529 22.9026 16.5684 22.2159 16.5684 21.4998C16.5684 20.7837 16.8529 20.097 17.3592 19.5906C17.8315 19.1184 18.4607 18.8391 19.1242 18.8037C19.0221 18.5161 18.9684 18.2107 18.9684 17.8998C18.9684 17.5452 19.0383 17.1941 19.174 16.8666C19.3096 16.539 19.5085 16.2413 19.7592 15.9906C19.9516 15.7983 20.1716 15.6364 20.4115 15.5102C20.2747 14.7467 19.9308 13.8007 19.0002 12.8772C18.5562 12.4362 18.1656 12.1974 17.79 12.111C17.4276 12.0282 17.0028 12.0702 16.4484 12.345C15.7644 12.6846 15.2274 12.8664 14.7588 12.9594C14.4628 13.0182 14.203 13.0394 13.9698 13.0469Z" fill="#EFFAE5"/>
<path d="M19.2684 19.9998C18.8706 19.9998 18.4891 20.1578 18.2078 20.4391C17.9265 20.7204 17.7684 21.102 17.7684 21.4998C17.7684 21.8976 17.9265 22.2792 18.2078 22.5605C18.4891 22.8418 18.8706 22.9998 19.2684 22.9998C19.6663 22.9998 20.0478 22.8418 20.3291 22.5605C20.6104 22.2792 20.7684 21.8976 20.7684 21.4998C20.7684 21.102 20.6104 20.7204 20.3291 20.4391C20.0478 20.1578 19.6663 19.9998 19.2684 19.9998Z" fill="#EFFAE5"/>
<path d="M21.6684 16.3998C21.2706 16.3998 20.8891 16.5578 20.6078 16.8391C20.3265 17.1204 20.1684 17.502 20.1684 17.8998C20.1684 18.2976 20.3265 18.6792 20.6078 18.9605C20.8891 19.2418 21.2706 19.3998 21.6684 19.3998C22.0663 19.3998 22.4478 19.2418 22.7291 18.9605C23.0104 18.6792 23.1684 18.2976 23.1684 17.8998C23.1684 17.502 23.0104 17.1204 22.7291 16.8391C22.4478 16.5578 22.0663 16.3998 21.6684 16.3998Z" fill="#EFFAE5"/>
<path d="M23.4326 14.8445C23.409 14.8659 23.3853 14.8871 23.3615 14.908C23.1936 15.0677 23.0634 15.2657 22.9836 15.4878C22.9786 15.5029 22.973 15.5178 22.9668 15.5325C23.1907 15.6553 23.3964 15.8094 23.5776 15.9906C23.7626 16.1755 23.9193 16.386 24.0433 16.6152C24.1437 16.5725 24.2469 16.5358 24.3522 16.5054C24.8304 16.3682 25.3345 16.3666 25.8092 16.4964C25.9415 16.1234 25.9211 15.7131 25.7522 15.355C25.5825 14.9952 25.2769 14.7175 24.9024 14.583C24.528 14.4485 24.1155 14.4683 23.7556 14.638C23.6386 14.6932 23.5302 14.7628 23.4326 14.8445Z" fill="#EFFAE5"/>
<path d="M22.1904 12.2616C21.7302 13.0921 21.5307 13.9539 21.5694 14.6577C21.8965 14.5153 22.2324 14.3002 22.554 14.0208C22.5834 13.9933 22.6134 13.9665 22.6441 13.9404C22.9249 13.6835 23.1927 13.3773 23.4318 13.0272C23.9924 12.2072 24.3565 11.199 24.3566 10.1385C23.4093 10.6148 22.6722 11.393 22.1904 12.2616Z" fill="#EFFAE5"/>
<path fill-rule="evenodd" clip-rule="evenodd" d="M22.1592 19.5906C21.6529 20.097 21.3684 20.7837 21.3684 21.4998C21.3684 22.2159 21.6529 22.9026 22.1592 23.409C22.6656 23.9153 23.3523 24.1998 24.0684 24.1998C24.1167 24.1998 24.1647 24.1985 24.2127 24.196C24.1972 24.1525 24.1806 24.1093 24.1629 24.0666C24.0272 23.739 23.8283 23.4413 23.5776 23.1906C23.3269 22.9399 23.0293 22.741 22.7017 22.6053C22.4186 22.4881 22.1179 22.42 21.8127 22.4037C21.9148 22.1162 21.9684 21.8107 21.9684 21.4998C21.9684 21.1889 21.9148 20.8835 21.8127 20.596C22.4762 20.5605 23.1054 20.2812 23.5776 19.809C23.8641 19.5225 24.0796 19.1783 24.2127 18.8037C24.1647 18.8011 24.1167 18.7998 24.0684 18.7998C23.3523 18.7998 22.6656 19.0843 22.1592 19.5906ZM26.307 19.9903C26.2104 20.1214 26.0929 20.2362 25.959 20.3298C25.8321 20.4222 25.7465 20.5607 25.7205 20.7156C25.6946 20.8704 25.7303 21.0293 25.8202 21.1581C25.91 21.2868 26.0467 21.3753 26.201 21.4044C26.3553 21.4335 26.5149 21.401 26.6454 21.3138C26.6828 21.2877 26.7194 21.2606 26.7552 21.2328C26.7109 20.7867 26.5562 20.3598 26.307 19.9903ZM26.4438 22.7835C26.3232 22.7183 26.1975 22.6622 26.0676 22.6158C25.9934 22.5893 25.9147 22.5777 25.836 22.5817C25.7573 22.5856 25.6801 22.605 25.6089 22.6388C25.5377 22.6725 25.4739 22.72 25.421 22.7784C25.3681 22.8369 25.3273 22.9052 25.3008 22.9794C25.2743 23.0537 25.2626 23.1318 25.2665 23.2106C25.2704 23.2894 25.2898 23.3666 25.3235 23.4379C25.3573 23.5092 25.4048 23.5731 25.4633 23.626C25.5055 23.6641 25.5528 23.696 25.6038 23.7208C25.7366 23.6289 25.8618 23.5248 25.9776 23.409C26.1642 23.2225 26.3206 23.0114 26.4438 22.7835Z" fill="#EFFAE5"/>
<path d="M24.3663 17.7919C24.3677 17.8278 24.3684 17.8638 24.3684 17.8998C24.3684 18.2107 24.3148 18.5161 24.2127 18.8037C24.8762 18.8391 25.5054 19.1184 25.9776 19.5906C26.1009 19.7139 26.211 19.8478 26.307 19.9903C26.3296 19.9597 26.351 19.9282 26.3711 19.8959C26.478 19.7251 26.5493 19.5345 26.5809 19.3355C26.6124 19.1365 26.6036 18.9332 26.5548 18.7377C26.5061 18.5422 26.4184 18.3585 26.2971 18.1976C26.1758 18.0367 26.0234 17.9019 25.8488 17.8012C25.6743 17.7006 25.4813 17.6361 25.2813 17.6117C25.0813 17.5872 24.8784 17.6033 24.6848 17.659C24.5736 17.691 24.4667 17.7357 24.3663 17.7919Z" fill="#EFFAE5"/>
<path d="M24.0684 19.9998C23.6706 19.9998 23.2891 20.1578 23.0078 20.4391C22.7265 20.7204 22.5684 21.102 22.5684 21.4998C22.5684 21.8976 22.7265 22.2792 23.0078 22.5605C23.2891 22.8418 23.6706 22.9998 24.0684 22.9998C24.4663 22.9998 24.8478 22.8418 25.1291 22.5605C25.4104 22.2792 25.5684 21.8976 25.5684 21.4998C25.5684 21.102 25.4104 20.7204 25.1291 20.4391C24.8478 20.1578 24.4663 19.9998 24.0684 19.9998Z" fill="#EFFAE5"/>
<path d="M24.3684 25.0998C24.3684 25.4965 24.2811 25.8842 24.1172 26.2373C24.2746 26.3895 24.4636 26.5054 24.6708 26.5768C24.8831 26.65 25.1091 26.6746 25.3321 26.6488C25.5551 26.6229 25.7695 26.5474 25.9595 26.4276C26.1494 26.3079 26.3101 26.1471 26.4296 25.957C26.549 25.7669 26.6243 25.5524 26.6499 25.3293C26.6754 25.1063 26.6506 24.8803 26.5771 24.6681C26.5037 24.4559 26.3836 24.263 26.2256 24.1034C26.0676 23.9438 25.8759 23.8218 25.6644 23.7462C25.6437 23.7388 25.6235 23.7303 25.6038 23.7208C25.1948 24.0035 24.7135 24.1692 24.2127 24.196C24.3156 24.4858 24.3684 24.7915 24.3684 25.0998Z" fill="#EFFAE5"/>
<path d="M21.6684 23.5998C21.2706 23.5998 20.8891 23.7578 20.6078 24.0391C20.3265 24.3204 20.1684 24.702 20.1684 25.0998C20.1684 25.4976 20.3265 25.8792 20.6078 26.1605C20.8891 26.4418 21.2706 26.5998 21.6684 26.5998C22.0663 26.5998 22.4478 26.4418 22.7291 26.1605C23.0104 25.8792 23.1684 25.4976 23.1684 25.0998C23.1684 24.702 23.0104 24.3204 22.7291 24.0391C22.4478 23.7578 22.0663 23.5998 21.6684 23.5998Z" fill="#EFFAE5"/>
<path d="M11.4041 11.1119C11.5209 11.1593 11.6383 11.2136 11.7564 11.2746C12.145 11.4758 12.4586 11.6046 12.7202 11.6878C12.5767 10.9703 12.1177 10.1472 11.3844 9.4458C10.6396 8.73327 9.66098 8.19585 8.56701 8.0435C9.01538 9.51079 10.1994 10.4741 11.4041 11.1119Z" fill="#EFFAE5"/>
<path d="M13.9266 23.4312L13.9251 23.4312M13.9266 23.4312L13.9366 23.4312M13.9266 23.4312C13.93 23.4312 13.9333 23.4312 13.9366 23.4312M13.9698 13.0469V13.0512H13.9578C13.9014 13.0512 13.8433 13.0512 13.7831 13.0506M13.9698 13.0469C14.203 13.0394 14.4628 13.0182 14.7588 12.9594C15.2274 12.8664 15.7644 12.6846 16.4484 12.345C17.0028 12.0702 17.4276 12.0282 17.79 12.111C18.1656 12.1974 18.5562 12.4362 19.0002 12.8772C19.9308 13.8007 20.2747 14.7467 20.4115 15.5102M13.9698 13.0469C13.9057 13.049 13.8435 13.0501 13.7831 13.0506M13.9698 13.0469V11.8512C13.6596 11.8512 13.4028 11.85 13.08 11.7828C12.9714 11.7604 12.8524 11.7299 12.7202 11.6878M13.7831 13.0506C13.7205 13.0512 13.6598 13.0512 13.6008 13.0512H13.5894C13.5531 13.0512 13.5172 13.0479 13.4819 13.0415M13.7831 13.0506C13.6879 13.0498 13.5878 13.0474 13.4819 13.0415M13.4819 13.0415C13.2878 13.0306 13.0745 13.0074 12.837 12.9582C12.5975 12.9085 12.34 12.8342 12.0534 12.725M13.4819 13.0415C13.3628 13.0198 13.252 12.9623 13.1652 12.8755C13.0526 12.7629 12.9894 12.6103 12.9894 12.4512C12.9894 12.2921 13.0526 12.1395 13.1652 12.0269C13.2777 11.9144 13.4303 11.8512 13.5894 11.8512C13.9122 11.8512 14.1834 11.85 14.5254 11.7822C14.8674 11.7144 15.3036 11.574 15.9156 11.2704C16.6572 10.902 17.3664 10.7832 18.0576 10.9416C18.7356 11.0964 19.317 11.5008 19.8456 12.0252C21.1074 13.278 21.5046 14.5962 21.6378 15.588C21.6564 15.7445 21.6127 15.9019 21.5162 16.0265C21.4196 16.151 21.278 16.2325 21.1218 16.2535C20.9657 16.2744 20.8075 16.2331 20.6816 16.1385C20.5556 16.0438 20.472 15.9034 20.4486 15.7476C20.4383 15.6707 20.4261 15.5915 20.4115 15.5102M12.0534 12.725C12.0385 12.7203 12.0237 12.7151 12.009 12.7092C11.6696 12.5735 11.2929 12.4072 10.9039 12.2042M12.0534 12.725C12.1893 12.7673 12.3365 12.7601 12.4682 12.7036C12.6145 12.641 12.7299 12.5228 12.789 12.375C12.8482 12.2273 12.8462 12.0621 12.7835 11.9158C12.7208 11.7695 12.6026 11.6541 12.4548 11.595C12.115 11.4591 11.7586 11.2996 11.4041 11.1119M12.0534 12.725C11.7966 12.6271 11.5164 12.5013 11.205 12.3402C11.0996 12.2858 10.9994 12.2408 10.9039 12.2042M10.9039 12.2042C10.5218 12.0578 10.2143 12.046 9.94743 12.1098C9.59703 12.1938 9.22683 12.4278 8.80023 12.8682C7.82103 13.881 7.51683 14.9238 7.41063 15.7254C7.35063 16.7118 7.52883 18.6594 8.41143 20.5632C8.71143 21.2112 9.13743 22.1052 9.65703 22.8054C9.91623 23.1546 10.1766 23.4234 10.4268 23.589C10.6698 23.7492 10.8714 23.793 11.0544 23.7618C12.9282 23.439 13.2804 23.4312 13.6458 23.4312H13.9251M10.9039 12.2042C9.32011 11.3775 7.53231 9.94103 7.22403 7.4748C7.20435 7.31696 7.24815 7.15775 7.34581 7.03219C7.44347 6.90662 7.587 6.82498 7.74483 6.8052C7.90268 6.78552 8.06189 6.82932 8.18745 6.92698C8.31302 7.02464 8.39466 7.16817 8.41443 7.326C8.44594 7.57766 8.49768 7.81661 8.56701 8.0435M13.9251 23.4312C13.7665 23.4316 13.6145 23.4948 13.5024 23.6069C13.3898 23.7195 13.3266 23.8721 13.3266 24.0312C13.3266 24.1903 13.3898 24.3429 13.5024 24.4555C13.6149 24.568 13.7675 24.6312 13.9266 24.6312H13.9434C14.2116 24.6312 14.5236 24.6312 16.4214 24.945C17.3346 25.0962 18.0924 24.585 18.6408 24.0162C18.6956 23.9594 18.7386 23.8924 18.7674 23.819C18.7962 23.7456 18.8103 23.6672 18.8088 23.5883C18.8072 23.5095 18.7902 23.4317 18.7586 23.3594C18.727 23.2872 18.6815 23.2225 18.6246 23.1678C18.5679 23.1132 18.5009 23.0702 18.4275 23.0415C18.3542 23.0127 18.2759 22.9987 18.1971 23.0002C18.1183 23.0017 18.0406 23.0187 17.9684 23.0502C17.8962 23.0818 17.8309 23.1272 17.7762 23.184C17.6596 23.3051 17.5478 23.4055 17.4406 23.487M13.9251 23.4312H13.9366M13.9366 23.4312H14.268V23.4393M13.9366 23.4312C14.0367 23.4312 14.137 23.432 14.268 23.4393M14.268 23.4393C14.6235 23.4592 15.2045 23.5274 16.6176 23.7612C16.8576 23.8005 17.13 23.723 17.4406 23.487M14.268 23.4393V24.6312H13.6284C13.3752 24.6312 13.0764 24.6312 11.2584 24.9444C10.6944 25.0416 10.1862 24.8682 9.76563 24.5904C9.35223 24.3174 8.99523 23.9268 8.69343 23.5206C8.09043 22.7088 7.61883 21.7062 7.32303 21.0678C6.34023 18.9486 6.13983 16.7856 6.21423 15.6294L6.21603 15.6102L6.21843 15.591C6.34563 14.6046 6.72483 13.2876 7.93803 12.0342C8.44503 11.5098 9.00723 11.1012 9.66843 10.9428C10.2349 10.8075 10.811 10.8711 11.4041 11.1119M17.4406 23.487C17.413 23.4616 17.3859 23.4356 17.3592 23.409C16.8529 22.9026 16.5684 22.2159 16.5684 21.4998C16.5684 20.7837 16.8529 20.097 17.3592 19.5906C17.8315 19.1184 18.4607 18.8391 19.1242 18.8037M17.4406 23.487C17.9379 23.9445 18.59 24.1998 19.2684 24.1998C19.9845 24.1998 20.6713 23.9153 21.1776 23.409C21.4641 23.1225 21.6796 22.7783 21.8127 22.4037M19.1242 18.8037C19.0221 18.5161 18.9684 18.2107 18.9684 17.8998C18.9684 17.5452 19.0383 17.1941 19.174 16.8666C19.3096 16.539 19.5085 16.2413 19.7592 15.9906C19.9516 15.7983 20.1716 15.6364 20.4115 15.5102M19.1242 18.8037C19.1721 18.8011 19.2202 18.7998 19.2684 18.7998C19.9845 18.7998 20.6713 19.0843 21.1776 19.5906C21.4641 19.8771 21.6796 20.2213 21.8127 20.596M19.1242 18.8037C19.2573 19.1783 19.4728 19.5225 19.7592 19.809C20.2656 20.3153 20.9524 20.5998 21.6684 20.5998C21.7167 20.5998 21.7647 20.5985 21.8127 20.596M20.4115 15.5102C20.4843 15.4719 20.5589 15.4369 20.6352 15.4053C20.9628 15.2696 21.3139 15.1998 21.6684 15.1998C22.023 15.1998 22.3741 15.2696 22.7017 15.4053C22.7925 15.4429 22.881 15.4854 22.9668 15.5325M23.4326 14.8445C23.409 14.8659 23.3853 14.8871 23.3615 14.908M23.4326 14.8445C23.5302 14.7628 23.6386 14.6932 23.7556 14.638C24.1155 14.4683 24.528 14.4485 24.9024 14.583C25.2769 14.7175 25.5825 14.9952 25.7522 15.355C25.9211 15.7131 25.9415 16.1234 25.8092 16.4964M23.4326 14.8445C23.4082 14.8649 23.3845 14.8861 23.3615 14.908M23.4326 14.8445C23.7987 14.5125 24.1339 14.1264 24.4224 13.704C25.2552 12.4848 25.7586 10.8804 25.4796 9.195C25.4668 9.11724 25.4388 9.04276 25.3971 8.97582C25.3555 8.90889 25.3011 8.85081 25.237 8.8049C25.173 8.75899 25.1005 8.72615 25.0237 8.70826C24.9469 8.69036 24.8674 8.68776 24.7896 8.70061C24.7119 8.71345 24.6374 8.74148 24.5705 8.78311C24.5035 8.82474 24.4454 8.87914 24.3995 8.94321C24.3536 9.00728 24.3208 9.07977 24.3029 9.15654C24.285 9.2333 24.2824 9.31284 24.2952 9.3906C24.3368 9.64159 24.3566 9.89146 24.3566 10.1385M23.3615 14.908C23.1936 15.0677 23.0634 15.2657 22.9836 15.4878C22.9786 15.5029 22.973 15.5178 22.9668 15.5325M23.3615 14.908C22.7004 15.4886 21.9443 15.8928 21.1836 16.0188C21.1053 16.033 21.025 16.0315 20.9472 16.0144C20.8695 15.9972 20.796 15.9648 20.7309 15.9189C20.6659 15.8731 20.6106 15.8148 20.5683 15.7474C20.526 15.6799 20.4975 15.6048 20.4845 15.5263C20.4716 15.4477 20.4743 15.3674 20.4927 15.29C20.5111 15.2125 20.5447 15.1395 20.5915 15.0752C20.6384 15.0109 20.6976 14.9565 20.7656 14.9153C20.8337 14.874 20.9093 14.8467 20.988 14.835C21.1751 14.8039 21.3706 14.7442 21.5694 14.6577M22.9668 15.5325C23.1907 15.6553 23.3964 15.8094 23.5776 15.9906C23.7626 16.1755 23.9193 16.386 24.0433 16.6152M22.9668 15.5325C22.942 15.5914 22.9079 15.646 22.8657 15.6942C22.813 15.7545 22.7488 15.8036 22.6768 15.8387C22.6049 15.8737 22.5266 15.894 22.4467 15.8984C22.3668 15.9028 22.2868 15.8911 22.2115 15.8641C22.1361 15.837 22.0669 15.7952 22.008 15.741C21.9491 15.6869 21.9016 15.6215 21.8683 15.5487C21.835 15.4759 21.8167 15.3971 21.8143 15.3171C21.8119 15.2371 21.8256 15.1575 21.8544 15.0828C22.0011 14.6744 22.2424 14.3114 22.554 14.0208M24.0433 16.6152C24.1437 16.5725 24.2469 16.5358 24.3522 16.5054C24.8304 16.3682 25.3345 16.3666 25.8092 16.4964M24.0433 16.6152C24.0874 16.6967 24.1273 16.7806 24.1629 16.8666C24.2848 17.1609 24.3536 17.4742 24.3663 17.7919M24.0433 16.6152C23.8112 16.7139 23.5936 16.8449 23.397 17.0046C23.3359 17.0543 23.2851 17.1156 23.2477 17.1849C23.2102 17.2543 23.1868 17.3303 23.1787 17.4087C23.1706 17.4871 23.1781 17.5663 23.2006 17.6418C23.2231 17.7173 23.2603 17.7877 23.31 17.8488C23.3598 17.9099 23.421 17.9607 23.4904 17.9982C23.5597 18.0356 23.6357 18.0591 23.7141 18.0671C23.7925 18.0752 23.8717 18.0678 23.9472 18.0452C24.0228 18.0227 24.0931 17.9855 24.1542 17.9358C24.2208 17.8818 24.2918 17.8337 24.3663 17.7919M25.8092 16.4964L25.8072 16.5018C25.7806 16.576 25.7689 16.6547 25.7727 16.7334C25.7766 16.8121 25.7958 16.8893 25.8295 16.9606C25.8632 17.0318 25.9105 17.0958 25.9689 17.1487C26.0272 17.2017 26.0955 17.2426 26.1696 17.2692C26.2438 17.2958 26.3225 17.3075 26.4012 17.3037C26.4799 17.2999 26.5571 17.2806 26.6284 17.2469C26.6996 17.2133 26.7636 17.1659 26.8165 17.1076C26.8695 17.0492 26.9104 16.981 26.937 16.9068C27.1788 16.2328 27.1429 15.4904 26.8373 14.8428C26.5317 14.1953 25.9814 13.6956 25.3074 13.4538C24.6335 13.212 23.8912 13.2478 23.2436 13.5533C23.0256 13.6561 22.8244 13.7867 22.6441 13.9404M25.8092 16.4964C25.9442 16.5333 26.0769 16.5809 26.206 16.639C26.7886 16.9015 27.2593 17.362 27.5344 17.9388C27.8095 18.5156 27.8711 19.1712 27.7084 19.7892C27.5572 20.3631 27.2216 20.8699 26.7552 21.2328M21.5694 14.6577C21.5307 13.9539 21.7302 13.0921 22.1904 12.2616C22.6722 11.393 23.4093 10.6148 24.3566 10.1385M21.5694 14.6577C21.8965 14.5153 22.2324 14.3002 22.554 14.0208M21.5694 14.6577C21.5813 14.8742 21.6157 15.0757 21.672 15.2568C21.6954 15.3321 21.7038 15.4112 21.6966 15.4896C21.6894 15.5681 21.6669 15.6444 21.6302 15.7142C21.5936 15.7839 21.5435 15.8458 21.4829 15.8962C21.4224 15.9466 21.3525 15.9846 21.2772 16.008C21.202 16.0314 21.1229 16.0398 21.0444 16.0326C20.9659 16.0254 20.8896 16.0028 20.8199 15.9662C20.7501 15.9295 20.6883 15.8795 20.6378 15.8189C20.5874 15.7584 20.5494 15.6885 20.526 15.6132C20.1606 14.4378 20.4342 12.9552 21.141 11.6796C21.8568 10.3884 23.0646 9.219 24.696 8.7114C24.7713 8.688 24.8504 8.67965 24.9289 8.68683C25.0073 8.694 25.0836 8.71657 25.1534 8.75323C25.2232 8.78989 25.285 8.83993 25.3354 8.90049C25.3858 8.96106 25.4238 9.03096 25.4472 9.1062C25.4706 9.18145 25.479 9.26057 25.4718 9.33905C25.4646 9.41752 25.4421 9.49382 25.4054 9.56357C25.3688 9.63333 25.3187 9.69518 25.2581 9.74559C25.1976 9.79601 25.1277 9.834 25.0524 9.8574C24.8094 9.93292 24.5773 10.0275 24.3566 10.1385M22.554 14.0208C22.5834 13.9933 22.6134 13.9665 22.6441 13.9404M22.554 14.0208C22.5841 13.9945 22.6142 13.9677 22.6441 13.9404M22.6441 13.9404C22.9249 13.6835 23.1927 13.3773 23.4318 13.0272C23.9924 12.2072 24.3565 11.199 24.3566 10.1385M24.2127 24.196C24.1647 24.1985 24.1167 24.1998 24.0684 24.1998C23.3523 24.1998 22.6656 23.9153 22.1592 23.409C21.6529 22.9026 21.3684 22.2159 21.3684 21.4998C21.3684 20.7837 21.6529 20.097 22.1592 19.5906C22.6656 19.0843 23.3523 18.7998 24.0684 18.7998C24.1167 18.7998 24.1647 18.8011 24.2127 18.8037M24.2127 24.196C24.1972 24.1525 24.1806 24.1093 24.1629 24.0666C24.0272 23.739 23.8283 23.4413 23.5776 23.1906C23.3269 22.9399 23.0293 22.741 22.7017 22.6053C22.4186 22.4881 22.1179 22.42 21.8127 22.4037M24.2127 24.196C24.3156 24.4858 24.3684 24.7915 24.3684 25.0998C24.3684 25.4965 24.2811 25.8842 24.1172 26.2373M24.2127 24.196C24.7135 24.1692 25.1948 24.0035 25.6038 23.7208M21.8127 22.4037C21.9148 22.1162 21.9684 21.8107 21.9684 21.4998C21.9684 21.1889 21.9148 20.8835 21.8127 20.596M21.8127 22.4037C21.7647 22.4011 21.7166 22.3998 21.6684 22.3998C21.3139 22.3998 20.9628 22.4696 20.6352 22.6053C20.3076 22.741 20.01 22.9399 19.7592 23.1906C19.5085 23.4413 19.3096 23.739 19.174 24.0666C19.0383 24.3941 18.9684 24.7452 18.9684 25.0998C18.9684 25.8159 19.2529 26.5026 19.7592 27.009C20.2656 27.5153 20.9524 27.7998 21.6684 27.7998C22.3845 27.7998 23.0713 27.5153 23.5776 27.009C23.8035 26.7832 23.9851 26.5214 24.1172 26.2373M21.8127 20.596C22.4762 20.5605 23.1054 20.2812 23.5776 19.809C23.8641 19.5225 24.0796 19.1783 24.2127 18.8037M24.2127 18.8037C24.8762 18.8391 25.5054 19.1184 25.9776 19.5906C26.1009 19.7139 26.211 19.8478 26.307 19.9903M24.2127 18.8037C24.3148 18.5161 24.3684 18.2107 24.3684 17.8998C24.3684 17.8638 24.3677 17.8278 24.3663 17.7919M26.307 19.9903C26.2104 20.1214 26.0929 20.2362 25.959 20.3298C25.8321 20.4222 25.7465 20.5607 25.7205 20.7156C25.6946 20.8704 25.7303 21.0293 25.8202 21.1581C25.91 21.2868 26.0467 21.3753 26.201 21.4044C26.3553 21.4335 26.5149 21.401 26.6454 21.3138C26.6828 21.2877 26.7194 21.2606 26.7552 21.2328M26.307 19.9903C26.5562 20.3598 26.7109 20.7867 26.7552 21.2328M26.307 19.9903C26.3296 19.9597 26.3509 19.9282 26.3711 19.8959C26.478 19.7251 26.5493 19.5345 26.5809 19.3355C26.6124 19.1365 26.6036 18.9332 26.5548 18.7377C26.5061 18.5422 26.4184 18.3585 26.2971 18.1976C26.1758 18.0367 26.0234 17.9019 25.8488 17.8012C25.6743 17.7006 25.4813 17.6361 25.2813 17.6117C25.0813 17.5872 24.8784 17.6033 24.6848 17.659C24.5736 17.691 24.4667 17.7357 24.3663 17.7919M26.7552 21.2328C26.764 21.3211 26.7684 21.4102 26.7684 21.4998C26.7684 21.9521 26.655 22.3927 26.4438 22.7835M26.4438 22.7835C26.3232 22.7183 26.1975 22.6622 26.0676 22.6158C25.9934 22.5893 25.9147 22.5777 25.836 22.5817C25.7573 22.5856 25.6801 22.605 25.6089 22.6388C25.5377 22.6725 25.4739 22.72 25.421 22.7784C25.3681 22.8369 25.3273 22.9052 25.3008 22.9794C25.2743 23.0537 25.2626 23.1318 25.2665 23.2106C25.2704 23.2894 25.2898 23.3666 25.3235 23.4379C25.3573 23.5092 25.4048 23.5731 25.4633 23.626C25.5055 23.6641 25.5528 23.696 25.6038 23.7208M26.4438 22.7835C26.3206 23.0114 26.1642 23.2225 25.9776 23.409C25.8618 23.5248 25.7366 23.6289 25.6038 23.7208M26.4438 22.7835C26.6767 22.9094 26.8906 23.0693 27.078 23.2585C27.3624 23.5457 27.5787 23.893 27.711 24.2749C27.8433 24.6569 27.8881 25.0636 27.8422 25.4652C27.7963 25.8667 27.6609 26.2529 27.4458 26.5951C27.2308 26.9373 26.9417 27.2269 26.5998 27.4425C26.2579 27.658 25.872 27.7941 25.4705 27.8406C25.069 27.8871 24.6622 27.8429 24.28 27.7113C23.8979 27.5796 23.5502 27.3638 23.2626 27.0798C23.2051 27.0248 23.1591 26.9589 23.1272 26.8859C23.0954 26.8129 23.0784 26.7344 23.0773 26.6548C23.0761 26.5752 23.0908 26.4961 23.1205 26.4223C23.1502 26.3484 23.1943 26.2812 23.2503 26.2245C23.3062 26.1679 23.3729 26.1229 23.4463 26.0923C23.5198 26.0617 23.5987 26.046 23.6783 26.0461C23.7579 26.0462 23.8367 26.0622 23.91 26.0931C23.9834 26.124 24.0499 26.1692 24.1056 26.226C24.1095 26.2298 24.1133 26.2335 24.1172 26.2373M25.6038 23.7208C25.6235 23.7303 25.6437 23.7388 25.6644 23.7462C25.8759 23.8218 26.0676 23.9438 26.2256 24.1034C26.3836 24.263 26.5037 24.4559 26.5771 24.6681C26.6506 24.8803 26.6754 25.1063 26.6499 25.3293C26.6243 25.5524 26.549 25.7669 26.4296 25.957C26.3101 26.1471 26.1494 26.3079 25.9595 26.4276C25.7695 26.5474 25.5551 26.6229 25.3321 26.6488C25.1091 26.6746 24.8831 26.65 24.6708 26.5768C24.4636 26.5054 24.2746 26.3895 24.1172 26.2373M11.4041 11.1119C11.5209 11.1593 11.6383 11.2136 11.7564 11.2746C12.145 11.4758 12.4586 11.6046 12.7202 11.6878M11.4041 11.1119C10.1994 10.4741 9.01538 9.51079 8.56701 8.0435M12.7202 11.6878C12.5767 10.9703 12.1177 10.1472 11.3844 9.4458C10.6396 8.73327 9.66098 8.19585 8.56701 8.0435M12.7202 11.6878C12.7523 11.8486 12.7686 12.0042 12.7686 12.1518C12.7686 12.3109 12.8318 12.4635 12.9444 12.5761C13.0569 12.6886 13.2095 12.7518 13.3686 12.7518C13.5278 12.7518 13.6804 12.6886 13.7929 12.5761C13.9054 12.4635 13.9686 12.3109 13.9686 12.1518C13.9686 10.9218 13.2678 9.5868 12.2136 8.5782C11.1468 7.5588 9.64623 6.7998 7.93803 6.7998C7.7789 6.7998 7.62629 6.86302 7.51377 6.97554C7.40125 7.08806 7.33803 7.24067 7.33803 7.3998C7.33803 7.55893 7.40125 7.71155 7.51377 7.82407C7.62629 7.93659 7.7789 7.9998 7.93803 7.9998C8.15125 7.9998 8.36117 8.01484 8.56701 8.0435M13.9284 7.1394C14.0876 7.1394 14.2402 7.20262 14.3527 7.31514C14.4652 7.42766 14.5284 7.58027 14.5284 7.7394V11.6994C14.5284 11.8585 14.4652 12.0111 14.3527 12.1237C14.2402 12.2362 14.0876 12.2994 13.9284 12.2994C13.7693 12.2994 13.6167 12.2362 13.5042 12.1237C13.3916 12.0111 13.3284 11.8585 13.3284 11.6994V7.7394C13.3284 7.58027 13.3916 7.42766 13.5042 7.31514C13.6167 7.20262 13.7693 7.1394 13.9284 7.1394ZM21.6684 16.3998C21.2706 16.3998 20.8891 16.5578 20.6078 16.8391C20.3265 17.1204 20.1684 17.502 20.1684 17.8998C20.1684 18.2976 20.3265 18.6792 20.6078 18.9605C20.8891 19.2418 21.2706 19.3998 21.6684 19.3998C22.0663 19.3998 22.4478 19.2418 22.7291 18.9605C23.0104 18.6792 23.1684 18.2976 23.1684 17.8998C23.1684 17.502 23.0104 17.1204 22.7291 16.8391C22.4478 16.5578 22.0663 16.3998 21.6684 16.3998ZM19.2684 19.9998C18.8706 19.9998 18.4891 20.1578 18.2078 20.4391C17.9265 20.7204 17.7684 21.102 17.7684 21.4998C17.7684 21.8976 17.9265 22.2792 18.2078 22.5605C18.4891 22.8418 18.8706 22.9998 19.2684 22.9998C19.6663 22.9998 20.0478 22.8418 20.3291 22.5605C20.6104 22.2792 20.7684 21.8976 20.7684 21.4998C20.7684 21.102 20.6104 20.7204 20.3291 20.4391C20.0478 20.1578 19.6663 19.9998 19.2684 19.9998ZM24.0684 19.9998C23.6706 19.9998 23.2891 20.1578 23.0078 20.4391C22.7265 20.7204 22.5684 21.102 22.5684 21.4998C22.5684 21.8976 22.7265 22.2792 23.0078 22.5605C23.2891 22.8418 23.6706 22.9998 24.0684 22.9998C24.4663 22.9998 24.8478 22.8418 25.1291 22.5605C25.4104 22.2792 25.5684 21.8976 25.5684 21.4998C25.5684 21.102 25.4104 20.7204 25.1291 20.4391C24.8478 20.1578 24.4663 19.9998 24.0684 19.9998ZM21.6684 23.5998C21.2706 23.5998 20.8891 23.7578 20.6078 24.0391C20.3265 24.3204 20.1684 24.702 20.1684 25.0998C20.1684 25.4976 20.3265 25.8792 20.6078 26.1605C20.8891 26.4418 21.2706 26.5998 21.6684 26.5998C22.0663 26.5998 22.4478 26.4418 22.7291 26.1605C23.0104 25.8792 23.1684 25.4976 23.1684 25.0998C23.1684 24.702 23.0104 24.3204 22.7291 24.0391C22.4478 23.7578 22.0663 23.5998 21.6684 23.5998Z" stroke="#333333" stroke-width="0.3"/>
<path fill-rule="evenodd" clip-rule="evenodd" d="M13.9284 7.1394C14.0876 7.1394 14.2402 7.20262 14.3527 7.31514C14.4652 7.42766 14.5284 7.58027 14.5284 7.7394V11.6994C14.5284 11.8585 14.4652 12.0111 14.3527 12.1237C14.2402 12.2362 14.0876 12.2994 13.9284 12.2994C13.7693 12.2994 13.6167 12.2362 13.5042 12.1237C13.3916 12.0111 13.3284 11.8585 13.3284 11.6994V7.7394C13.3284 7.58027 13.3916 7.42766 13.5042 7.31514C13.6167 7.20262 13.7693 7.1394 13.9284 7.1394Z" fill="#333333"/>
<path fill-rule="evenodd" clip-rule="evenodd" d="M9.66843 10.9428C10.3464 10.7808 11.0382 10.9038 11.7564 11.2746C12.3414 11.5776 12.7566 11.7162 13.08 11.7828C13.4028 11.85 13.6596 11.8512 13.9698 11.8512V13.0512H13.9578C13.6482 13.0512 13.2858 13.0512 12.837 12.9582C12.3828 12.864 11.8638 12.681 11.205 12.3402C10.6782 12.0684 10.281 12.03 9.94743 12.1098C9.59703 12.1938 9.22683 12.4278 8.80023 12.8682C7.82103 13.881 7.51683 14.9238 7.41063 15.7254C7.35063 16.7118 7.52883 18.6594 8.41143 20.5632C8.71143 21.2112 9.13743 22.1052 9.65703 22.8054C9.91623 23.1546 10.1766 23.4234 10.4268 23.589C10.6698 23.7492 10.8714 23.793 11.0544 23.7618C12.9282 23.439 13.2804 23.4312 13.6458 23.4312H14.268V24.6312H13.6284C13.3752 24.6312 13.0764 24.6312 11.2584 24.9444C10.6944 25.0416 10.1862 24.8682 9.76563 24.5904C9.35223 24.3174 8.99523 23.9268 8.69343 23.5206C8.09043 22.7088 7.61883 21.7062 7.32303 21.0678C6.34023 18.9486 6.13983 16.7856 6.21423 15.6294L6.21603 15.6102L6.21843 15.591C6.34563 14.6046 6.72483 13.2876 7.93803 12.0342C8.44503 11.5098 9.00723 11.1012 9.66843 10.9428Z" fill="#333333"/>
<path fill-rule="evenodd" clip-rule="evenodd" d="M11.3844 9.4458C12.282 10.3044 12.7686 11.3454 12.7686 12.1518C12.7686 12.3109 12.8318 12.4635 12.9444 12.5761C13.0569 12.6886 13.2095 12.7518 13.3686 12.7518C13.5278 12.7518 13.6804 12.6886 13.7929 12.5761C13.9054 12.4635 13.9686 12.3109 13.9686 12.1518C13.9686 10.9218 13.2678 9.5868 12.2136 8.5782C11.1468 7.5588 9.64623 6.7998 7.93803 6.7998C7.7789 6.7998 7.62629 6.86302 7.51377 6.97554C7.40125 7.08806 7.33803 7.24067 7.33803 7.3998C7.33803 7.55893 7.40125 7.71155 7.51377 7.82407C7.62629 7.93659 7.7789 7.9998 7.93803 7.9998C9.28443 7.9998 10.4994 8.5992 11.3844 9.4458Z" fill="#333333"/>
<path fill-rule="evenodd" clip-rule="evenodd" d="M7.74483 6.8052C7.90268 6.78552 8.06189 6.82932 8.18745 6.92698C8.31302 7.02464 8.39466 7.16817 8.41443 7.326C8.70963 9.684 10.7814 10.926 12.4548 11.595C12.6026 11.6541 12.7208 11.7695 12.7835 11.9158C12.8462 12.0621 12.8482 12.2273 12.789 12.375C12.7299 12.5228 12.6145 12.641 12.4682 12.7036C12.322 12.7663 12.1568 12.7683 12.009 12.7092C10.2876 12.021 7.60803 10.5468 7.22403 7.4748C7.20435 7.31696 7.24815 7.15775 7.34581 7.03219C7.44347 6.90662 7.587 6.82498 7.74483 6.8052ZM18.0576 10.9416C17.3664 10.7832 16.6572 10.902 15.9156 11.2704C15.3036 11.574 14.8674 11.7144 14.5254 11.7822C14.1834 11.85 13.9122 11.8512 13.5894 11.8512C13.4303 11.8512 13.2777 11.9144 13.1652 12.0269C13.0526 12.1395 12.9894 12.2921 12.9894 12.4512C12.9894 12.6103 13.0526 12.7629 13.1652 12.8755C13.2777 12.988 13.4303 13.0512 13.5894 13.0512H13.6008C13.923 13.0512 14.2968 13.0512 14.7588 12.9594C15.2274 12.8664 15.7644 12.6846 16.4484 12.345C17.0028 12.0702 17.4276 12.0282 17.79 12.111C18.1656 12.1974 18.5562 12.4362 19.0002 12.8772C20.0298 13.899 20.3412 14.9484 20.4486 15.7476C20.472 15.9034 20.5556 16.0438 20.6816 16.1385C20.8075 16.2331 20.9657 16.2744 21.1218 16.2535C21.278 16.2325 21.4196 16.151 21.5162 16.0265C21.6127 15.9019 21.6564 15.7445 21.6378 15.588C21.5046 14.5962 21.1074 13.278 19.8456 12.0252C19.317 11.5008 18.7356 11.0964 18.0576 10.9416ZM18.6246 23.1678C18.5679 23.1132 18.5009 23.0702 18.4275 23.0415C18.3542 23.0127 18.2759 22.9987 18.1971 23.0002C18.1183 23.0017 18.0406 23.0187 17.9684 23.0502C17.8962 23.0818 17.8309 23.1272 17.7762 23.184C17.322 23.6556 16.9404 23.814 16.6176 23.7612C14.6664 23.4384 14.3016 23.4312 13.9266 23.4312C13.7675 23.4312 13.6149 23.4944 13.5024 23.6069C13.3898 23.7195 13.3266 23.8721 13.3266 24.0312C13.3266 24.1903 13.3898 24.3429 13.5024 24.4555C13.6149 24.568 13.7675 24.6312 13.9266 24.6312H13.9434C14.2116 24.6312 14.5236 24.6312 16.4214 24.945C17.3346 25.0962 18.0924 24.585 18.6408 24.0162C18.6956 23.9594 18.7386 23.8924 18.7674 23.819C18.7962 23.7456 18.8103 23.6672 18.8088 23.5883C18.8072 23.5095 18.7902 23.4317 18.7586 23.3594C18.727 23.2872 18.6815 23.2225 18.6246 23.1678Z" fill="#333333"/>
<path fill-rule="evenodd" clip-rule="evenodd" d="M22.1904 12.2616C21.5886 13.3476 21.4326 14.487 21.672 15.2568C21.6954 15.3321 21.7038 15.4112 21.6966 15.4896C21.6894 15.5681 21.6669 15.6444 21.6302 15.7142C21.5936 15.7839 21.5435 15.8458 21.4829 15.8962C21.4224 15.9466 21.3525 15.9846 21.2772 16.008C21.202 16.0314 21.1229 16.0398 21.0444 16.0326C20.9659 16.0254 20.8896 16.0028 20.8199 15.9662C20.7501 15.9295 20.6883 15.8795 20.6378 15.8189C20.5874 15.7584 20.5494 15.6885 20.526 15.6132C20.1606 14.4378 20.4342 12.9552 21.141 11.6796C21.8568 10.3884 23.0646 9.219 24.696 8.7114C24.7713 8.688 24.8504 8.67965 24.9289 8.68683C25.0073 8.694 25.0836 8.71657 25.1534 8.75323C25.2232 8.78989 25.285 8.83993 25.3354 8.90049C25.3858 8.96106 25.4238 9.03096 25.4472 9.1062C25.4706 9.18145 25.479 9.26057 25.4718 9.33905C25.4646 9.41752 25.4421 9.49382 25.4054 9.56357C25.3688 9.63333 25.3187 9.69518 25.2581 9.74559C25.1976 9.79601 25.1277 9.834 25.0524 9.8574C23.7666 10.257 22.7844 11.1906 22.1904 12.2616Z" fill="#333333"/>
<path fill-rule="evenodd" clip-rule="evenodd" d="M23.4318 13.0272C22.731 14.0532 21.783 14.703 20.988 14.835C20.9093 14.8467 20.8337 14.874 20.7656 14.9153C20.6976 14.9565 20.6384 15.0109 20.5915 15.0752C20.5447 15.1395 20.5111 15.2125 20.4927 15.29C20.4743 15.3674 20.4715 15.4477 20.4845 15.5263C20.4975 15.6048 20.526 15.6799 20.5683 15.7474C20.6106 15.8148 20.6659 15.8731 20.7309 15.9189C20.796 15.9648 20.8695 15.9972 20.9472 16.0144C21.025 16.0315 21.1053 16.033 21.1836 16.0188C22.3974 15.8178 23.5998 14.9082 24.4224 13.704C25.2552 12.4848 25.7586 10.8804 25.4796 9.195C25.4668 9.11724 25.4388 9.04276 25.3971 8.97582C25.3555 8.90889 25.3011 8.85081 25.237 8.8049C25.173 8.75899 25.1005 8.72615 25.0237 8.70826C24.9469 8.69036 24.8674 8.68776 24.7896 8.70061C24.7119 8.71345 24.6374 8.74148 24.5705 8.78311C24.5035 8.82474 24.4454 8.87914 24.3995 8.94321C24.3536 9.00728 24.3208 9.07977 24.3029 9.15654C24.285 9.2333 24.2824 9.31284 24.2952 9.3906C24.5154 10.719 24.123 12.0162 23.4318 13.0272Z" fill="#333333"/>
<path fill-rule="evenodd" clip-rule="evenodd" d="M21.6684 16.3998C21.2706 16.3998 20.8891 16.5578 20.6078 16.8391C20.3265 17.1204 20.1684 17.502 20.1684 17.8998C20.1684 18.2976 20.3265 18.6792 20.6078 18.9605C20.8891 19.2418 21.2706 19.3998 21.6684 19.3998C22.0663 19.3998 22.4478 19.2418 22.7291 18.9605C23.0104 18.6792 23.1684 18.2976 23.1684 17.8998C23.1684 17.502 23.0104 17.1204 22.7291 16.8391C22.4478 16.5578 22.0663 16.3998 21.6684 16.3998ZM18.9684 17.8998C18.9684 17.5452 19.0383 17.1941 19.174 16.8666C19.3096 16.539 19.5085 16.2413 19.7592 15.9906C20.01 15.7399 20.3076 15.541 20.6352 15.4053C20.9628 15.2696 21.3139 15.1998 21.6684 15.1998C22.023 15.1998 22.3741 15.2696 22.7017 15.4053C23.0293 15.541 23.3269 15.7399 23.5776 15.9906C23.8283 16.2413 24.0272 16.539 24.1629 16.8666C24.2986 17.1941 24.3684 17.5452 24.3684 17.8998C24.3684 18.6159 24.084 19.3026 23.5776 19.809C23.0713 20.3153 22.3845 20.5998 21.6684 20.5998C20.9524 20.5998 20.2656 20.3153 19.7592 19.809C19.2529 19.3026 18.9684 18.6159 18.9684 17.8998Z" fill="#333333"/>
<path fill-rule="evenodd" clip-rule="evenodd" d="M25.3074 13.4538C25.9814 13.6956 26.5317 14.1953 26.8373 14.8428C27.1429 15.4904 27.1788 16.2328 26.937 16.9068C26.9104 16.981 26.8695 17.0492 26.8165 17.1076C26.7636 17.1659 26.6996 17.2133 26.6284 17.2469C26.5571 17.2806 26.4799 17.2999 26.4012 17.3037C26.3225 17.3075 26.2438 17.2958 26.1696 17.2692C26.0955 17.2426 26.0272 17.2017 25.9689 17.1487C25.9105 17.0958 25.8632 17.0318 25.8295 16.9606C25.7958 16.8893 25.7766 16.8121 25.7727 16.7334C25.7689 16.6547 25.7806 16.576 25.8072 16.5018C25.9417 16.1274 25.9219 15.7149 25.7522 15.355C25.5825 14.9952 25.2769 14.7175 24.9024 14.583C24.528 14.4485 24.1155 14.4683 23.7556 14.638C23.3958 14.8077 23.1181 15.1134 22.9836 15.4878C22.9585 15.5638 22.9184 15.634 22.8657 15.6942C22.813 15.7545 22.7488 15.8036 22.6768 15.8387C22.6049 15.8737 22.5266 15.894 22.4467 15.8984C22.3668 15.9028 22.2868 15.8911 22.2115 15.8641C22.1361 15.837 22.0669 15.7952 22.008 15.741C21.9491 15.6869 21.9016 15.6215 21.8683 15.5487C21.835 15.4759 21.8167 15.3971 21.8143 15.3171C21.8119 15.2371 21.8256 15.1575 21.8544 15.0828C22.0964 14.4089 22.5961 13.8588 23.2436 13.5533C23.8912 13.2478 24.6335 13.212 25.3074 13.4538Z" fill="#333333"/>
<path fill-rule="evenodd" clip-rule="evenodd" d="M24.3522 16.5054C24.9665 16.3292 25.6233 16.3766 26.206 16.639C26.7886 16.9015 27.2593 17.362 27.5344 17.9388C27.8095 18.5156 27.8711 19.1712 27.7084 19.7892C27.5456 20.4072 27.169 20.9474 26.6454 21.3138C26.5149 21.401 26.3553 21.4335 26.201 21.4044C26.0467 21.3753 25.91 21.2868 25.8202 21.1581C25.7303 21.0293 25.6946 20.8704 25.7205 20.7156C25.7465 20.5607 25.8321 20.4222 25.959 20.3298C26.1242 20.2143 26.2643 20.0668 26.3711 19.8959C26.478 19.7251 26.5493 19.5345 26.5809 19.3355C26.6124 19.1365 26.6036 18.9332 26.5548 18.7377C26.5061 18.5422 26.4184 18.3585 26.2971 18.1976C26.1758 18.0367 26.0234 17.9019 25.8488 17.8012C25.6743 17.7006 25.4813 17.6361 25.2813 17.6117C25.0813 17.5872 24.8784 17.6033 24.6848 17.659C24.4911 17.7147 24.3107 17.8088 24.1542 17.9358C24.0931 17.9855 24.0228 18.0227 23.9472 18.0452C23.8717 18.0678 23.7925 18.0752 23.7141 18.0671C23.6357 18.0591 23.5597 18.0356 23.4904 17.9982C23.421 17.9607 23.3598 17.9099 23.31 17.8488C23.2603 17.7877 23.2231 17.7173 23.2006 17.6418C23.1781 17.5663 23.1706 17.4871 23.1787 17.4087C23.1868 17.3303 23.2102 17.2543 23.2477 17.1849C23.2851 17.1156 23.3359 17.0543 23.397 17.0046C23.6786 16.7757 24.0035 16.6059 24.3522 16.5054ZM19.2684 19.9998C18.8706 19.9998 18.4891 20.1578 18.2078 20.4391C17.9265 20.7204 17.7684 21.102 17.7684 21.4998C17.7684 21.8976 17.9265 22.2792 18.2078 22.5605C18.4891 22.8418 18.8706 22.9998 19.2684 22.9998C19.6663 22.9998 20.0478 22.8418 20.3291 22.5605C20.6104 22.2792 20.7684 21.8976 20.7684 21.4998C20.7684 21.102 20.6104 20.7204 20.3291 20.4391C20.0478 20.1578 19.6663 19.9998 19.2684 19.9998ZM16.5684 21.4998C16.5684 20.7837 16.8529 20.097 17.3592 19.5906C17.8656 19.0843 18.5524 18.7998 19.2684 18.7998C19.9845 18.7998 20.6713 19.0843 21.1776 19.5906C21.684 20.097 21.9684 20.7837 21.9684 21.4998C21.9684 22.2159 21.684 22.9026 21.1776 23.409C20.6713 23.9153 19.9845 24.1998 19.2684 24.1998C18.5524 24.1998 17.8656 23.9153 17.3592 23.409C16.8529 22.9026 16.5684 22.2159 16.5684 21.4998Z" fill="#333333"/>
<path fill-rule="evenodd" clip-rule="evenodd" d="M24.0684 19.9998C23.6706 19.9998 23.2891 20.1578 23.0078 20.4391C22.7265 20.7204 22.5684 21.102 22.5684 21.4998C22.5684 21.8976 22.7265 22.2792 23.0078 22.5605C23.2891 22.8418 23.6706 22.9998 24.0684 22.9998C24.4663 22.9998 24.8478 22.8418 25.1291 22.5605C25.4104 22.2792 25.5684 21.8976 25.5684 21.4998C25.5684 21.102 25.4104 20.7204 25.1291 20.4391C24.8478 20.1578 24.4663 19.9998 24.0684 19.9998ZM21.3684 21.4998C21.3684 20.7837 21.6529 20.097 22.1592 19.5906C22.6656 19.0843 23.3523 18.7998 24.0684 18.7998C24.7845 18.7998 25.4713 19.0843 25.9776 19.5906C26.484 20.097 26.7684 20.7837 26.7684 21.4998C26.7684 22.2159 26.484 22.9026 25.9776 23.409C25.4713 23.9153 24.7845 24.1998 24.0684 24.1998C23.3523 24.1998 22.6656 23.9153 22.1592 23.409C21.6529 22.9026 21.3684 22.2159 21.3684 21.4998Z" fill="#333333"/>
<path fill-rule="evenodd" clip-rule="evenodd" d="M21.6684 23.5998C21.2706 23.5998 20.8891 23.7578 20.6078 24.0391C20.3265 24.3204 20.1684 24.702 20.1684 25.0998C20.1684 25.4976 20.3265 25.8792 20.6078 26.1605C20.8891 26.4418 21.2706 26.5998 21.6684 26.5998C22.0663 26.5998 22.4478 26.4418 22.7291 26.1605C23.0104 25.8792 23.1684 25.4976 23.1684 25.0998C23.1684 24.702 23.0104 24.3204 22.7291 24.0391C22.4478 23.7578 22.0663 23.5998 21.6684 23.5998ZM18.9684 25.0998C18.9684 24.7452 19.0383 24.3941 19.174 24.0666C19.3096 23.739 19.5085 23.4413 19.7592 23.1906C20.01 22.9399 20.3076 22.741 20.6352 22.6053C20.9628 22.4696 21.3139 22.3998 21.6684 22.3998C22.023 22.3998 22.3741 22.4696 22.7017 22.6053C23.0293 22.741 23.3269 22.9399 23.5776 23.1906C23.8283 23.4413 24.0272 23.739 24.1629 24.0666C24.2986 24.3941 24.3684 24.7452 24.3684 25.0998C24.3684 25.8159 24.084 26.5026 23.5776 27.009C23.0713 27.5153 22.3845 27.7998 21.6684 27.7998C20.9524 27.7998 20.2656 27.5153 19.7592 27.009C19.2529 26.5026 18.9684 25.8159 18.9684 25.0998Z" fill="#333333"/>
<path fill-rule="evenodd" clip-rule="evenodd" d="M25.3008 22.9794C25.3273 22.9052 25.3681 22.8369 25.421 22.7784C25.4739 22.72 25.5377 22.6725 25.6089 22.6388C25.6801 22.605 25.7573 22.5856 25.836 22.5817C25.9147 22.5777 25.9934 22.5893 26.0676 22.6158C26.4483 22.7517 26.7935 22.9714 27.078 23.2585C27.3624 23.5457 27.5787 23.893 27.711 24.2749C27.8433 24.6569 27.8881 25.0636 27.8422 25.4652C27.7963 25.8667 27.6609 26.2529 27.4458 26.5951C27.2308 26.9373 26.9417 27.2269 26.5998 27.4425C26.2579 27.658 25.872 27.7941 25.4705 27.8406C25.069 27.8871 24.6622 27.8429 24.28 27.7113C23.8979 27.5796 23.5502 27.3638 23.2626 27.0798C23.2051 27.0248 23.1591 26.9589 23.1272 26.8859C23.0954 26.8129 23.0784 26.7344 23.0773 26.6548C23.0761 26.5752 23.0908 26.4961 23.1205 26.4223C23.1502 26.3484 23.1943 26.2812 23.2503 26.2245C23.3062 26.1679 23.3729 26.1229 23.4463 26.0923C23.5198 26.0617 23.5987 26.046 23.6783 26.0461C23.7579 26.0462 23.8367 26.0622 23.91 26.0931C23.9834 26.124 24.0499 26.1692 24.1056 26.226C24.2654 26.3838 24.4585 26.5037 24.6708 26.5768C24.8831 26.65 25.1091 26.6746 25.3321 26.6488C25.5551 26.6229 25.7695 26.5474 25.9595 26.4276C26.1494 26.3079 26.3101 26.1471 26.4296 25.957C26.549 25.7669 26.6243 25.5524 26.6499 25.3293C26.6754 25.1063 26.6506 24.8803 26.5771 24.6681C26.5037 24.4559 26.3836 24.263 26.2256 24.1034C26.0676 23.9438 25.8759 23.8218 25.6644 23.7462C25.5901 23.7197 25.5218 23.6789 25.4633 23.626C25.4048 23.5731 25.3573 23.5092 25.3235 23.4379C25.2898 23.3666 25.2704 23.2894 25.2665 23.2106C25.2626 23.1318 25.2743 23.0537 25.3008 22.9794Z" fill="#333333"/>
<path fill-rule="evenodd" clip-rule="evenodd" d="M13.9284 7.1394C14.0876 7.1394 14.2402 7.20262 14.3527 7.31514C14.4652 7.42766 14.5284 7.58027 14.5284 7.7394V11.6994C14.5284 11.8585 14.4652 12.0111 14.3527 12.1237C14.2402 12.2362 14.0876 12.2994 13.9284 12.2994C13.7693 12.2994 13.6167 12.2362 13.5042 12.1237C13.3916 12.0111 13.3284 11.8585 13.3284 11.6994V7.7394C13.3284 7.58027 13.3916 7.42766 13.5042 7.31514C13.6167 7.20262 13.7693 7.1394 13.9284 7.1394Z" stroke="#333333" stroke-width="0.3"/>
<path fill-rule="evenodd" clip-rule="evenodd" d="M9.66843 10.9428C10.3464 10.7808 11.0382 10.9038 11.7564 11.2746C12.3414 11.5776 12.7566 11.7162 13.08 11.7828C13.4028 11.85 13.6596 11.8512 13.9698 11.8512V13.0512H13.9578C13.6482 13.0512 13.2858 13.0512 12.837 12.9582C12.3828 12.864 11.8638 12.681 11.205 12.3402C10.6782 12.0684 10.281 12.03 9.94743 12.1098C9.59703 12.1938 9.22683 12.4278 8.80023 12.8682C7.82103 13.881 7.51683 14.9238 7.41063 15.7254C7.35063 16.7118 7.52883 18.6594 8.41143 20.5632C8.71143 21.2112 9.13743 22.1052 9.65703 22.8054C9.91623 23.1546 10.1766 23.4234 10.4268 23.589C10.6698 23.7492 10.8714 23.793 11.0544 23.7618C12.9282 23.439 13.2804 23.4312 13.6458 23.4312H14.268V24.6312H13.6284C13.3752 24.6312 13.0764 24.6312 11.2584 24.9444C10.6944 25.0416 10.1862 24.8682 9.76563 24.5904C9.35223 24.3174 8.99523 23.9268 8.69343 23.5206C8.09043 22.7088 7.61883 21.7062 7.32303 21.0678C6.34023 18.9486 6.13983 16.7856 6.21423 15.6294L6.21603 15.6102L6.21843 15.591C6.34563 14.6046 6.72483 13.2876 7.93803 12.0342C8.44503 11.5098 9.00723 11.1012 9.66843 10.9428Z" stroke="#333333" stroke-width="0.3"/>
<path fill-rule="evenodd" clip-rule="evenodd" d="M11.3844 9.4458C12.282 10.3044 12.7686 11.3454 12.7686 12.1518C12.7686 12.3109 12.8318 12.4635 12.9444 12.5761C13.0569 12.6886 13.2095 12.7518 13.3686 12.7518C13.5278 12.7518 13.6804 12.6886 13.7929 12.5761C13.9054 12.4635 13.9686 12.3109 13.9686 12.1518C13.9686 10.9218 13.2678 9.5868 12.2136 8.5782C11.1468 7.5588 9.64623 6.7998 7.93803 6.7998C7.7789 6.7998 7.62629 6.86302 7.51377 6.97554C7.40125 7.08806 7.33803 7.24067 7.33803 7.3998C7.33803 7.55893 7.40125 7.71155 7.51377 7.82407C7.62629 7.93659 7.7789 7.9998 7.93803 7.9998C9.28443 7.9998 10.4994 8.5992 11.3844 9.4458Z" stroke="#333333" stroke-width="0.3"/>
<path fill-rule="evenodd" clip-rule="evenodd" d="M7.74483 6.8052C7.90268 6.78552 8.06189 6.82932 8.18745 6.92698C8.31302 7.02464 8.39466 7.16817 8.41443 7.326C8.70963 9.684 10.7814 10.926 12.4548 11.595C12.6026 11.6541 12.7208 11.7695 12.7835 11.9158C12.8462 12.0621 12.8482 12.2273 12.789 12.375C12.7299 12.5228 12.6145 12.641 12.4682 12.7036C12.322 12.7663 12.1568 12.7683 12.009 12.7092C10.2876 12.021 7.60803 10.5468 7.22403 7.4748C7.20435 7.31696 7.24815 7.15775 7.34581 7.03219C7.44347 6.90662 7.587 6.82498 7.74483 6.8052ZM18.0576 10.9416C17.3664 10.7832 16.6572 10.902 15.9156 11.2704C15.3036 11.574 14.8674 11.7144 14.5254 11.7822C14.1834 11.85 13.9122 11.8512 13.5894 11.8512C13.4303 11.8512 13.2777 11.9144 13.1652 12.0269C13.0526 12.1395 12.9894 12.2921 12.9894 12.4512C12.9894 12.6103 13.0526 12.7629 13.1652 12.8755C13.2777 12.988 13.4303 13.0512 13.5894 13.0512H13.6008C13.923 13.0512 14.2968 13.0512 14.7588 12.9594C15.2274 12.8664 15.7644 12.6846 16.4484 12.345C17.0028 12.0702 17.4276 12.0282 17.79 12.111C18.1656 12.1974 18.5562 12.4362 19.0002 12.8772C20.0298 13.899 20.3412 14.9484 20.4486 15.7476C20.472 15.9034 20.5556 16.0438 20.6816 16.1385C20.8075 16.2331 20.9657 16.2744 21.1218 16.2535C21.278 16.2325 21.4196 16.151 21.5162 16.0265C21.6127 15.9019 21.6564 15.7445 21.6378 15.588C21.5046 14.5962 21.1074 13.278 19.8456 12.0252C19.317 11.5008 18.7356 11.0964 18.0576 10.9416ZM18.6246 23.1678C18.5679 23.1132 18.5009 23.0702 18.4275 23.0415C18.3542 23.0127 18.2759 22.9987 18.1971 23.0002C18.1183 23.0017 18.0406 23.0187 17.9684 23.0502C17.8962 23.0818 17.8309 23.1272 17.7762 23.184C17.322 23.6556 16.9404 23.814 16.6176 23.7612C14.6664 23.4384 14.3016 23.4312 13.9266 23.4312C13.7675 23.4312 13.6149 23.4944 13.5024 23.6069C13.3898 23.7195 13.3266 23.8721 13.3266 24.0312C13.3266 24.1903 13.3898 24.3429 13.5024 24.4555C13.6149 24.568 13.7675 24.6312 13.9266 24.6312H13.9434C14.2116 24.6312 14.5236 24.6312 16.4214 24.945C17.3346 25.0962 18.0924 24.585 18.6408 24.0162C18.6956 23.9594 18.7386 23.8924 18.7674 23.819C18.7962 23.7456 18.8103 23.6672 18.8088 23.5883C18.8072 23.5095 18.7902 23.4317 18.7586 23.3594C18.727 23.2872 18.6815 23.2225 18.6246 23.1678Z" stroke="#333333" stroke-width="0.3"/>
<path fill-rule="evenodd" clip-rule="evenodd" d="M22.1904 12.2616C21.5886 13.3476 21.4326 14.487 21.672 15.2568C21.6954 15.3321 21.7038 15.4112 21.6966 15.4896C21.6894 15.5681 21.6669 15.6444 21.6302 15.7142C21.5936 15.7839 21.5435 15.8458 21.4829 15.8962C21.4224 15.9466 21.3525 15.9846 21.2772 16.008C21.202 16.0314 21.1229 16.0398 21.0444 16.0326C20.9659 16.0254 20.8896 16.0028 20.8199 15.9662C20.7501 15.9295 20.6883 15.8795 20.6378 15.8189C20.5874 15.7584 20.5494 15.6885 20.526 15.6132C20.1606 14.4378 20.4342 12.9552 21.141 11.6796C21.8568 10.3884 23.0646 9.219 24.696 8.7114C24.7713 8.688 24.8504 8.67965 24.9289 8.68683C25.0073 8.694 25.0836 8.71657 25.1534 8.75323C25.2232 8.78989 25.285 8.83993 25.3354 8.90049C25.3858 8.96106 25.4238 9.03096 25.4472 9.1062C25.4706 9.18145 25.479 9.26057 25.4718 9.33905C25.4646 9.41752 25.4421 9.49382 25.4054 9.56357C25.3688 9.63333 25.3187 9.69518 25.2581 9.74559C25.1976 9.79601 25.1277 9.834 25.0524 9.8574C23.7666 10.257 22.7844 11.1906 22.1904 12.2616Z" stroke="#333333" stroke-width="0.3"/>
<path fill-rule="evenodd" clip-rule="evenodd" d="M23.4318 13.0272C22.731 14.0532 21.783 14.703 20.988 14.835C20.9093 14.8467 20.8337 14.874 20.7656 14.9153C20.6976 14.9565 20.6384 15.0109 20.5915 15.0752C20.5447 15.1395 20.5111 15.2125 20.4927 15.29C20.4743 15.3674 20.4715 15.4477 20.4845 15.5263C20.4975 15.6048 20.526 15.6799 20.5683 15.7474C20.6106 15.8148 20.6659 15.8731 20.7309 15.9189C20.796 15.9648 20.8695 15.9972 20.9472 16.0144C21.025 16.0315 21.1053 16.033 21.1836 16.0188C22.3974 15.8178 23.5998 14.9082 24.4224 13.704C25.2552 12.4848 25.7586 10.8804 25.4796 9.195C25.4668 9.11724 25.4388 9.04276 25.3971 8.97582C25.3555 8.90889 25.3011 8.85081 25.237 8.8049C25.173 8.75899 25.1005 8.72615 25.0237 8.70826C24.9469 8.69036 24.8674 8.68776 24.7896 8.70061C24.7119 8.71345 24.6374 8.74148 24.5705 8.78311C24.5035 8.82474 24.4454 8.87914 24.3995 8.94321C24.3536 9.00728 24.3208 9.07977 24.3029 9.15654C24.285 9.2333 24.2824 9.31284 24.2952 9.3906C24.5154 10.719 24.123 12.0162 23.4318 13.0272Z" stroke="#333333" stroke-width="0.3"/>
<path fill-rule="evenodd" clip-rule="evenodd" d="M21.6684 16.3998C21.2706 16.3998 20.8891 16.5578 20.6078 16.8391C20.3265 17.1204 20.1684 17.502 20.1684 17.8998C20.1684 18.2976 20.3265 18.6792 20.6078 18.9605C20.8891 19.2418 21.2706 19.3998 21.6684 19.3998C22.0663 19.3998 22.4478 19.2418 22.7291 18.9605C23.0104 18.6792 23.1684 18.2976 23.1684 17.8998C23.1684 17.502 23.0104 17.1204 22.7291 16.8391C22.4478 16.5578 22.0663 16.3998 21.6684 16.3998ZM18.9684 17.8998C18.9684 17.5452 19.0383 17.1941 19.174 16.8666C19.3096 16.539 19.5085 16.2413 19.7592 15.9906C20.01 15.7399 20.3076 15.541 20.6352 15.4053C20.9628 15.2696 21.3139 15.1998 21.6684 15.1998C22.023 15.1998 22.3741 15.2696 22.7017 15.4053C23.0293 15.541 23.3269 15.7399 23.5776 15.9906C23.8283 16.2413 24.0272 16.539 24.1629 16.8666C24.2986 17.1941 24.3684 17.5452 24.3684 17.8998C24.3684 18.6159 24.084 19.3026 23.5776 19.809C23.0713 20.3153 22.3845 20.5998 21.6684 20.5998C20.9524 20.5998 20.2656 20.3153 19.7592 19.809C19.2529 19.3026 18.9684 18.6159 18.9684 17.8998Z" stroke="#333333" stroke-width="0.3"/>
<path fill-rule="evenodd" clip-rule="evenodd" d="M25.3074 13.4538C25.9814 13.6956 26.5317 14.1953 26.8373 14.8428C27.1429 15.4904 27.1788 16.2328 26.937 16.9068C26.9104 16.981 26.8695 17.0492 26.8165 17.1076C26.7636 17.1659 26.6996 17.2133 26.6284 17.2469C26.5571 17.2806 26.4799 17.2999 26.4012 17.3037C26.3225 17.3075 26.2438 17.2958 26.1696 17.2692C26.0955 17.2426 26.0272 17.2017 25.9689 17.1487C25.9105 17.0958 25.8632 17.0318 25.8295 16.9606C25.7958 16.8893 25.7766 16.8121 25.7727 16.7334C25.7689 16.6547 25.7806 16.576 25.8072 16.5018C25.9417 16.1274 25.9219 15.7149 25.7522 15.355C25.5825 14.9952 25.2769 14.7175 24.9024 14.583C24.528 14.4485 24.1155 14.4683 23.7556 14.638C23.3958 14.8077 23.1181 15.1134 22.9836 15.4878C22.9585 15.5638 22.9184 15.634 22.8657 15.6942C22.813 15.7545 22.7488 15.8036 22.6768 15.8387C22.6049 15.8737 22.5266 15.894 22.4467 15.8984C22.3668 15.9028 22.2868 15.8911 22.2115 15.8641C22.1361 15.837 22.0669 15.7952 22.008 15.741C21.9491 15.6869 21.9016 15.6215 21.8683 15.5487C21.835 15.4759 21.8167 15.3971 21.8143 15.3171C21.8119 15.2371 21.8256 15.1575 21.8544 15.0828C22.0964 14.4089 22.5961 13.8588 23.2436 13.5533C23.8912 13.2478 24.6335 13.212 25.3074 13.4538Z" stroke="#333333" stroke-width="0.3"/>
<path fill-rule="evenodd" clip-rule="evenodd" d="M24.3522 16.5054C24.9665 16.3292 25.6233 16.3766 26.206 16.639C26.7886 16.9015 27.2593 17.362 27.5344 17.9388C27.8095 18.5156 27.8711 19.1712 27.7084 19.7892C27.5456 20.4072 27.169 20.9474 26.6454 21.3138C26.5149 21.401 26.3553 21.4335 26.201 21.4044C26.0467 21.3753 25.91 21.2868 25.8202 21.1581C25.7303 21.0293 25.6946 20.8704 25.7205 20.7156C25.7465 20.5607 25.8321 20.4222 25.959 20.3298C26.1242 20.2143 26.2643 20.0668 26.3711 19.8959C26.478 19.7251 26.5493 19.5345 26.5809 19.3355C26.6124 19.1365 26.6036 18.9332 26.5548 18.7377C26.5061 18.5422 26.4184 18.3585 26.2971 18.1976C26.1758 18.0367 26.0234 17.9019 25.8488 17.8012C25.6743 17.7006 25.4813 17.6361 25.2813 17.6117C25.0813 17.5872 24.8784 17.6033 24.6848 17.659C24.4911 17.7147 24.3107 17.8088 24.1542 17.9358C24.0931 17.9855 24.0228 18.0227 23.9472 18.0452C23.8717 18.0678 23.7925 18.0752 23.7141 18.0671C23.6357 18.0591 23.5597 18.0356 23.4904 17.9982C23.421 17.9607 23.3598 17.9099 23.31 17.8488C23.2603 17.7877 23.2231 17.7173 23.2006 17.6418C23.1781 17.5663 23.1706 17.4871 23.1787 17.4087C23.1868 17.3303 23.2102 17.2543 23.2477 17.1849C23.2851 17.1156 23.3359 17.0543 23.397 17.0046C23.6786 16.7757 24.0035 16.6059 24.3522 16.5054ZM19.2684 19.9998C18.8706 19.9998 18.4891 20.1578 18.2078 20.4391C17.9265 20.7204 17.7684 21.102 17.7684 21.4998C17.7684 21.8976 17.9265 22.2792 18.2078 22.5605C18.4891 22.8418 18.8706 22.9998 19.2684 22.9998C19.6663 22.9998 20.0478 22.8418 20.3291 22.5605C20.6104 22.2792 20.7684 21.8976 20.7684 21.4998C20.7684 21.102 20.6104 20.7204 20.3291 20.4391C20.0478 20.1578 19.6663 19.9998 19.2684 19.9998ZM16.5684 21.4998C16.5684 20.7837 16.8529 20.097 17.3592 19.5906C17.8656 19.0843 18.5524 18.7998 19.2684 18.7998C19.9845 18.7998 20.6713 19.0843 21.1776 19.5906C21.684 20.097 21.9684 20.7837 21.9684 21.4998C21.9684 22.2159 21.684 22.9026 21.1776 23.409C20.6713 23.9153 19.9845 24.1998 19.2684 24.1998C18.5524 24.1998 17.8656 23.9153 17.3592 23.409C16.8529 22.9026 16.5684 22.2159 16.5684 21.4998Z" stroke="#333333" stroke-width="0.3"/>
<path fill-rule="evenodd" clip-rule="evenodd" d="M24.0684 19.9998C23.6706 19.9998 23.2891 20.1578 23.0078 20.4391C22.7265 20.7204 22.5684 21.102 22.5684 21.4998C22.5684 21.8976 22.7265 22.2792 23.0078 22.5605C23.2891 22.8418 23.6706 22.9998 24.0684 22.9998C24.4663 22.9998 24.8478 22.8418 25.1291 22.5605C25.4104 22.2792 25.5684 21.8976 25.5684 21.4998C25.5684 21.102 25.4104 20.7204 25.1291 20.4391C24.8478 20.1578 24.4663 19.9998 24.0684 19.9998ZM21.3684 21.4998C21.3684 20.7837 21.6529 20.097 22.1592 19.5906C22.6656 19.0843 23.3523 18.7998 24.0684 18.7998C24.7845 18.7998 25.4713 19.0843 25.9776 19.5906C26.484 20.097 26.7684 20.7837 26.7684 21.4998C26.7684 22.2159 26.484 22.9026 25.9776 23.409C25.4713 23.9153 24.7845 24.1998 24.0684 24.1998C23.3523 24.1998 22.6656 23.9153 22.1592 23.409C21.6529 22.9026 21.3684 22.2159 21.3684 21.4998Z" stroke="#333333" stroke-width="0.3"/>
<path fill-rule="evenodd" clip-rule="evenodd" d="M21.6684 23.5998C21.2706 23.5998 20.8891 23.7578 20.6078 24.0391C20.3265 24.3204 20.1684 24.702 20.1684 25.0998C20.1684 25.4976 20.3265 25.8792 20.6078 26.1605C20.8891 26.4418 21.2706 26.5998 21.6684 26.5998C22.0663 26.5998 22.4478 26.4418 22.7291 26.1605C23.0104 25.8792 23.1684 25.4976 23.1684 25.0998C23.1684 24.702 23.0104 24.3204 22.7291 24.0391C22.4478 23.7578 22.0663 23.5998 21.6684 23.5998ZM18.9684 25.0998C18.9684 24.7452 19.0383 24.3941 19.174 24.0666C19.3096 23.739 19.5085 23.4413 19.7592 23.1906C20.01 22.9399 20.3076 22.741 20.6352 22.6053C20.9628 22.4696 21.3139 22.3998 21.6684 22.3998C22.023 22.3998 22.3741 22.4696 22.7017 22.6053C23.0293 22.741 23.3269 22.9399 23.5776 23.1906C23.8283 23.4413 24.0272 23.739 24.1629 24.0666C24.2986 24.3941 24.3684 24.7452 24.3684 25.0998C24.3684 25.8159 24.084 26.5026 23.5776 27.009C23.0713 27.5153 22.3845 27.7998 21.6684 27.7998C20.9524 27.7998 20.2656 27.5153 19.7592 27.009C19.2529 26.5026 18.9684 25.8159 18.9684 25.0998Z" stroke="#333333" stroke-width="0.3"/>
<path fill-rule="evenodd" clip-rule="evenodd" d="M25.3008 22.9794C25.3273 22.9052 25.3681 22.8369 25.421 22.7784C25.4739 22.72 25.5377 22.6725 25.6089 22.6388C25.6801 22.605 25.7573 22.5856 25.836 22.5817C25.9147 22.5777 25.9934 22.5893 26.0676 22.6158C26.4483 22.7517 26.7935 22.9714 27.078 23.2585C27.3624 23.5457 27.5787 23.893 27.711 24.2749C27.8433 24.6569 27.8881 25.0636 27.8422 25.4652C27.7963 25.8667 27.6609 26.2529 27.4458 26.5951C27.2308 26.9373 26.9417 27.2269 26.5998 27.4425C26.2579 27.658 25.872 27.7941 25.4705 27.8406C25.069 27.8871 24.6622 27.8429 24.28 27.7113C23.8979 27.5796 23.5502 27.3638 23.2626 27.0798C23.2051 27.0248 23.1591 26.9589 23.1272 26.8859C23.0954 26.8129 23.0784 26.7344 23.0773 26.6548C23.0761 26.5752 23.0908 26.4961 23.1205 26.4223C23.1502 26.3484 23.1943 26.2812 23.2503 26.2245C23.3062 26.1679 23.3729 26.1229 23.4463 26.0923C23.5198 26.0617 23.5987 26.046 23.6783 26.0461C23.7579 26.0462 23.8367 26.0622 23.91 26.0931C23.9834 26.124 24.0499 26.1692 24.1056 26.226C24.2654 26.3838 24.4585 26.5037 24.6708 26.5768C24.8831 26.65 25.1091 26.6746 25.3321 26.6488C25.5551 26.6229 25.7695 26.5474 25.9595 26.4276C26.1494 26.3079 26.3101 26.1471 26.4296 25.957C26.549 25.7669 26.6243 25.5524 26.6499 25.3293C26.6754 25.1063 26.6506 24.8803 26.5771 24.6681C26.5037 24.4559 26.3836 24.263 26.2256 24.1034C26.0676 23.9438 25.8759 23.8218 25.6644 23.7462C25.5901 23.7197 25.5218 23.6789 25.4633 23.626C25.4048 23.5731 25.3573 23.5092 25.3235 23.4379C25.2898 23.3666 25.2704 23.2894 25.2665 23.2106C25.2626 23.1318 25.2743 23.0537 25.3008 22.9794Z" stroke="#333333" stroke-width="0.3"/>
</svg>
