<svg width="34" height="34" viewBox="0 0 34 34" fill="none" xmlns="http://www.w3.org/2000/svg">
<circle cx="17" cy="17" r="17" fill="white"/>
<g clip-path="url(#clip0_963_9731)">
<path d="M17.0003 25.3337C21.6027 25.3337 25.3337 21.6027 25.3337 17.0003C25.3337 12.398 21.6027 8.66699 17.0003 8.66699C12.398 8.66699 8.66699 12.398 8.66699 17.0003C8.66699 21.6027 12.398 25.3337 17.0003 25.3337Z" fill="#EFFAE5"/>
<path d="M20.3337 20.3337C20.3337 20.3337 19.0837 18.667 17.0003 18.667C14.917 18.667 13.667 20.3337 13.667 20.3337" fill="#EFFAE5"/>
<path d="M20.3337 20.3337C20.3337 20.3337 19.0837 18.667 17.0003 18.667C14.917 18.667 13.667 20.3337 13.667 20.3337M14.5003 14.5003H14.5087M19.5003 14.5003H19.5087M25.3337 17.0003C25.3337 21.6027 21.6027 25.3337 17.0003 25.3337C12.398 25.3337 8.66699 21.6027 8.66699 17.0003C8.66699 12.398 12.398 8.66699 17.0003 8.66699C21.6027 8.66699 25.3337 12.398 25.3337 17.0003Z" stroke="#333333" stroke-width="2" stroke-linecap="round" stroke-linejoin="round"/>
</g>
<defs>
<clipPath id="clip0_963_9731">
<rect width="20" height="20" fill="white" transform="translate(7 7)"/>
</clipPath>
</defs>
</svg>
