<svg width="34" height="34" viewBox="0 0 34 34" fill="none" xmlns="http://www.w3.org/2000/svg">
<path d="M34 17C34 26.3888 26.3888 34 17 34C7.61116 34 0 26.3888 0 17C0 7.61116 7.61116 0 17 0C26.3888 0 34 7.61116 34 17Z" fill="#FEFEFE"/>
<path d="M14.5151 16.724C14.5151 15.594 14.6071 14.322 14.9011 13.137C15.1961 11.948 15.6791 10.902 16.4181 10.164C17.2381 9.34397 18.3921 8.88397 19.6681 8.66397C20.9381 8.44597 22.2681 8.47797 23.3601 8.58397C23.8914 8.6308 24.3893 8.86322 24.7663 9.24046C25.1434 9.61769 25.3756 10.1156 25.4221 10.647C25.5281 11.739 25.5601 13.067 25.3421 14.339C25.1221 15.615 24.6621 16.768 23.8421 17.589C23.1031 18.328 22.0561 18.812 20.8661 19.107C19.6811 19.401 18.4081 19.494 17.2781 19.494C16.2781 19.494 15.4581 20.306 15.4531 21.308C15.4451 23.003 15.2331 24.968 14.5171 26.478C14.4778 26.4416 14.4511 26.3936 14.4411 26.341C14.2283 25.4411 13.9709 24.5524 13.6701 23.678C13.5258 23.2612 13.3565 22.8534 13.1631 22.457C12.9851 22.102 12.7711 21.75 12.5121 21.49C12.2521 21.23 11.9001 21.016 11.5441 20.838C11.1473 20.6446 10.7393 20.4753 10.3221 20.331C9.44664 20.0309 8.55729 19.773 7.65713 19.558C7.60535 19.5478 7.55809 19.5216 7.52213 19.483C9.03213 18.766 11.0021 18.556 12.6991 18.549C13.1814 18.5461 13.643 18.3526 13.9832 18.0107C14.3234 17.6688 14.5146 17.2063 14.5151 16.724ZM15.3571 9.10297C14.3561 10.104 13.7771 11.438 13.4451 12.776C13.1121 14.12 13.0141 15.523 13.0151 16.726C13.0141 16.8111 12.9799 16.8925 12.9197 16.9529C12.8596 17.0132 12.7783 17.0477 12.6931 17.049C10.9221 17.056 8.67713 17.269 6.86113 18.136C6.17913 18.462 5.89413 19.134 6.03513 19.771C6.16813 20.367 6.65013 20.856 7.30213 21.015C8.09713 21.209 9.01913 21.46 9.82113 21.745C10.2221 21.887 10.5811 22.033 10.8731 22.179C11.1751 22.331 11.3601 22.459 11.4511 22.551C11.5421 22.641 11.6711 22.826 11.8221 23.128C11.9681 23.42 12.1141 23.778 12.2561 24.179C12.5401 24.98 12.7901 25.902 12.9841 26.696C13.1431 27.348 13.6321 27.831 14.2291 27.963C14.8661 28.105 15.5381 27.82 15.8641 27.138C16.7311 25.325 16.9441 23.084 16.9541 21.315C16.9541 21.141 17.1011 20.994 17.2771 20.994C18.4791 20.994 19.8831 20.896 21.2271 20.563C22.5671 20.23 23.9011 19.651 24.9031 18.649C26.0231 17.529 26.5711 16.04 26.8201 14.593C27.0701 13.142 27.0291 11.667 26.9151 10.501C26.8347 9.62372 26.4496 8.80234 25.8267 8.17943C25.2038 7.55652 24.3824 7.17141 23.5051 7.09097C22.3391 6.97797 20.8651 6.93697 19.4131 7.18597C17.9661 7.43497 16.4771 7.98397 15.3571 9.10297ZM21.0021 9.99997C21.2674 9.99997 21.5217 10.1053 21.7092 10.2929C21.8968 10.4804 22.0021 10.7348 22.0021 11C22.0021 11.2652 21.8968 11.5195 21.7092 11.7071C21.5217 11.8946 21.2674 12 21.0021 12C20.7369 12 20.4826 11.8946 20.295 11.7071C20.1075 11.5195 20.0021 11.2652 20.0021 11C20.0021 10.7348 20.1075 10.4804 20.295 10.2929C20.4826 10.1053 20.7369 9.99997 21.0021 9.99997Z" fill="black"/>
<path fill-rule="evenodd" clip-rule="evenodd" d="M14.5151 16.724C14.5151 15.594 14.6071 14.322 14.9011 13.137C15.1961 11.948 15.6791 10.902 16.4181 10.164C17.2381 9.34397 18.3921 8.88397 19.6681 8.66397C20.9381 8.44597 22.2681 8.47797 23.3601 8.58397C23.8914 8.6308 24.3893 8.86322 24.7663 9.24046C25.1434 9.61769 25.3756 10.1156 25.4221 10.647C25.5281 11.739 25.5601 13.067 25.3421 14.339C25.1221 15.615 24.6621 16.768 23.8421 17.589C23.1031 18.328 22.0561 18.812 20.8661 19.107C19.6811 19.401 18.4081 19.494 17.2781 19.494C16.2781 19.494 15.4581 20.306 15.4531 21.308C15.4451 23.003 15.2331 24.968 14.5171 26.478C14.4778 26.4416 14.4511 26.3936 14.4411 26.341C14.2283 25.4411 13.9709 24.5524 13.6701 23.678C13.5258 23.2612 13.3565 22.8534 13.1631 22.457C12.9851 22.102 12.7711 21.75 12.5121 21.49C12.2521 21.23 11.9001 21.016 11.5441 20.838C11.1473 20.6446 10.7393 20.4753 10.3221 20.331C9.44664 20.0309 8.55729 19.773 7.65713 19.558C7.60535 19.5478 7.55809 19.5216 7.52213 19.483C9.03213 18.766 11.0021 18.556 12.6991 18.549C13.1814 18.5461 13.643 18.3526 13.9832 18.0107C14.3234 17.6688 14.5146 17.2063 14.5151 16.724ZM21.7092 10.2929C21.5217 10.1053 21.2674 9.99997 21.0021 9.99997C20.7369 9.99997 20.4826 10.1053 20.295 10.2929C20.1075 10.4804 20.0021 10.7348 20.0021 11C20.0021 11.2652 20.1075 11.5195 20.295 11.7071C20.4826 11.8946 20.7369 12 21.0021 12C21.2674 12 21.5217 11.8946 21.7092 11.7071C21.8968 11.5195 22.0021 11.2652 22.0021 11C22.0021 10.7348 21.8968 10.4804 21.7092 10.2929Z" fill="#EFFAE5"/>
</svg>
