<svg width="34" height="34" viewBox="0 0 34 34" fill="none" xmlns="http://www.w3.org/2000/svg">
<circle cx="17" cy="17" r="17" fill="white"/>
<path d="M13.9998 15.8025C14.2377 15.8025 14.4659 15.708 14.6341 15.5397C14.8023 15.3715 14.8968 15.1434 14.8968 14.9055C14.8968 14.6676 14.8023 14.4394 14.6341 14.2712C14.4659 14.103 14.2377 14.0085 13.9998 14.0085C13.7619 14.0085 13.5337 14.103 13.3655 14.2712C13.1973 14.4394 13.1028 14.6676 13.1028 14.9055C13.1028 15.1434 13.1973 15.3715 13.3655 15.5397C13.5337 15.708 13.7619 15.8025 13.9998 15.8025ZM18.4674 17.3061C18.4674 17.544 18.3729 17.7721 18.2047 17.9403C18.0365 18.1086 17.8083 18.2031 17.5704 18.2031C17.3325 18.2031 17.1044 18.1086 16.9361 17.9403C16.7679 17.7721 16.6734 17.544 16.6734 17.3061C16.6734 17.0682 16.7679 16.84 16.9361 16.6718C17.1044 16.5036 17.3325 16.4091 17.5704 16.4091C17.8083 16.4091 18.0365 16.5036 18.2047 16.6718C18.3729 16.84 18.4674 17.0682 18.4674 17.3061ZM14.0046 21.2097C14.123 21.2097 14.2401 21.1863 14.3495 21.1411C14.4588 21.0958 14.5582 21.0294 14.6418 20.9457C14.7255 20.862 14.7919 20.7627 14.8372 20.6533C14.8825 20.544 14.9058 20.4268 14.9058 20.3085C14.9058 20.1901 14.8825 20.0729 14.8372 19.9636C14.7919 19.8542 14.7255 19.7549 14.6418 19.6712C14.5582 19.5875 14.4588 19.5211 14.3495 19.4759C14.2401 19.4306 14.123 19.4073 14.0046 19.4073C13.7656 19.4073 13.5364 19.5022 13.3674 19.6712C13.1984 19.8402 13.1034 20.0694 13.1034 20.3085C13.1034 20.5475 13.1984 20.7767 13.3674 20.9457C13.5364 21.1147 13.7656 21.2097 14.0046 21.2097ZM9.7998 9.74726C9.7998 8.43326 10.8738 7.32086 12.2358 7.40486C17.5722 7.73366 22.2522 9.52886 25.9182 13.0293C26.9586 14.0217 26.7534 15.6429 25.6746 16.4709C23.9958 17.7668 22.3058 19.0481 20.6046 20.3145V22.4025C20.6046 23.2629 19.9386 24.2025 18.8046 24.2025C18.6016 24.2023 18.3999 24.1699 18.207 24.1065V24.2061C18.207 25.0617 17.5398 25.9953 16.4034 25.9953C15.4986 25.9953 14.9022 25.4001 14.6922 24.7353C14.0346 25.2273 13.3158 25.7625 12.6738 26.2401C11.4858 27.1245 9.7998 26.2761 9.7998 24.8001V9.74726ZM18.207 22.4025C18.207 22.7133 18.4398 23.0025 18.8046 23.0025C19.1706 23.0025 19.4046 22.7109 19.4046 22.4025V20.0097C19.4047 19.9151 19.4271 19.8219 19.4701 19.7376C19.513 19.6534 19.5753 19.5805 19.6518 19.5249C20.5878 18.8457 22.1814 17.6349 23.5926 16.5561C20.361 13.4805 15.831 11.6553 10.9998 11.6169V24.7989C11.0001 24.9099 11.0313 25.0186 11.0897 25.113C11.1482 25.2074 11.2317 25.2837 11.3309 25.3335C11.4302 25.3832 11.5413 25.4044 11.6519 25.3948C11.7625 25.3852 11.8683 25.345 11.9574 25.2789C12.9006 24.5757 14.013 23.7477 14.8482 23.1213C14.9373 23.0544 15.0433 23.0137 15.1543 23.0037C15.2653 22.9937 15.3769 23.0148 15.4765 23.0646C15.5762 23.1144 15.66 23.191 15.7186 23.2858C15.7772 23.3806 15.8082 23.4898 15.8082 23.6013V24.2061C15.8082 24.5025 16.0362 24.7965 16.4034 24.7965C16.482 24.7984 16.5602 24.7845 16.6334 24.7557C16.7066 24.7268 16.7732 24.6836 16.8294 24.6286C16.8856 24.5735 16.9301 24.5078 16.9604 24.4352C16.9907 24.3626 17.0061 24.2847 17.0058 24.2061V22.4025C17.0058 22.2433 17.069 22.0907 17.1815 21.9782C17.2941 21.8657 17.4467 21.8025 17.6058 21.8025C17.7649 21.8025 17.9175 21.8657 18.0301 21.9782C18.1426 22.0907 18.207 22.2433 18.207 22.4025ZM24.9414 15.5205C25.4994 15.0921 25.5414 14.3289 25.0878 13.8957C21.6594 10.6233 17.2638 8.91566 12.1614 8.60126C11.5398 8.56286 10.9998 9.07406 10.9998 9.74726V10.4169C16.1922 10.4565 21.0834 12.4413 24.5562 15.8169L24.9414 15.5205Z" fill="#333333"/>
<path fill-rule="evenodd" clip-rule="evenodd" d="M18.207 22.4025C18.207 22.7133 18.4398 23.0025 18.8046 23.0025C19.1706 23.0025 19.4046 22.7109 19.4046 22.4025V20.0097C19.4047 19.9151 19.4271 19.8219 19.4701 19.7376C19.513 19.6534 19.5753 19.5805 19.6518 19.5249C20.5878 18.8457 22.1814 17.6349 23.5926 16.5561C20.361 13.4805 15.831 11.6553 10.9998 11.6169V24.7989C11.0001 24.9099 11.0313 25.0186 11.0897 25.113C11.1482 25.2074 11.2317 25.2837 11.3309 25.3335C11.4302 25.3832 11.5413 25.4044 11.6519 25.3948C11.7625 25.3852 11.8683 25.345 11.9574 25.2789C12.9006 24.5757 14.013 23.7477 14.8482 23.1213C14.9373 23.0544 15.0433 23.0137 15.1543 23.0037C15.2653 22.9937 15.3769 23.0148 15.4765 23.0646C15.5762 23.1144 15.66 23.191 15.7186 23.2858C15.7772 23.3806 15.8082 23.4898 15.8082 23.6013V24.2061C15.8082 24.5025 16.0362 24.7965 16.4034 24.7965C16.482 24.7984 16.5602 24.7845 16.6334 24.7557C16.7066 24.7268 16.7732 24.6836 16.8294 24.6286C16.8856 24.5735 16.9301 24.5078 16.9604 24.4352C16.9907 24.3626 17.0061 24.2847 17.0058 24.2061V22.4025C17.0058 22.2433 17.069 22.0907 17.1815 21.9782C17.2941 21.8657 17.4467 21.8025 17.6058 21.8025C17.7649 21.8025 17.9175 21.8657 18.0301 21.9782C18.1426 22.0907 18.207 22.2433 18.207 22.4025ZM14.6341 15.5397C14.4659 15.708 14.2377 15.8025 13.9998 15.8025C13.7619 15.8025 13.5337 15.708 13.3655 15.5397C13.1973 15.3715 13.1028 15.1434 13.1028 14.9055C13.1028 14.6676 13.1973 14.4394 13.3655 14.2712C13.5337 14.103 13.7619 14.0085 13.9998 14.0085C14.2377 14.0085 14.4659 14.103 14.6341 14.2712C14.8023 14.4394 14.8968 14.6676 14.8968 14.9055C14.8968 15.1434 14.8023 15.3715 14.6341 15.5397ZM18.2047 17.9403C18.3729 17.7721 18.4674 17.544 18.4674 17.3061C18.4674 17.0682 18.3729 16.84 18.2047 16.6718C18.0365 16.5036 17.8083 16.4091 17.5704 16.4091C17.3325 16.4091 17.1044 16.5036 16.9361 16.6718C16.7679 16.84 16.6734 17.0682 16.6734 17.3061C16.6734 17.544 16.7679 17.7721 16.9361 17.9403C17.1044 18.1086 17.3325 18.2031 17.5704 18.2031C17.8083 18.2031 18.0365 18.1086 18.2047 17.9403ZM14.3495 21.1411C14.2401 21.1863 14.123 21.2097 14.0046 21.2097C13.7656 21.2097 13.5364 21.1147 13.3674 20.9457C13.1984 20.7767 13.1034 20.5475 13.1034 20.3085C13.1034 20.0694 13.1984 19.8402 13.3674 19.6712C13.5364 19.5022 13.7656 19.4073 14.0046 19.4073C14.123 19.4073 14.2401 19.4306 14.3495 19.4759C14.4588 19.5211 14.5582 19.5875 14.6418 19.6712C14.7255 19.7549 14.7919 19.8542 14.8372 19.9636C14.8825 20.0729 14.9058 20.1901 14.9058 20.3085C14.9058 20.4268 14.8825 20.544 14.8372 20.6533C14.7919 20.7627 14.7255 20.862 14.6418 20.9457C14.5582 21.0294 14.4588 21.0958 14.3495 21.1411Z" fill="#EFFAE5"/>
<path d="M24.9414 15.5205C25.4994 15.0921 25.5414 14.3289 25.0878 13.8957C21.6594 10.6233 17.2638 8.91566 12.1614 8.60126C11.5398 8.56286 10.9998 9.07406 10.9998 9.74726V10.4169C16.1922 10.4565 21.0834 12.4413 24.5562 15.8169L24.9414 15.5205Z" fill="#EFFAE5"/>
<path d="M13.9998 15.8025C14.2377 15.8025 14.4659 15.708 14.6341 15.5397C14.8023 15.3715 14.8968 15.1434 14.8968 14.9055C14.8968 14.6676 14.8023 14.4394 14.6341 14.2712C14.4659 14.103 14.2377 14.0085 13.9998 14.0085C13.7619 14.0085 13.5337 14.103 13.3655 14.2712C13.1973 14.4394 13.1028 14.6676 13.1028 14.9055C13.1028 15.1434 13.1973 15.3715 13.3655 15.5397C13.5337 15.708 13.7619 15.8025 13.9998 15.8025ZM18.4674 17.3061C18.4674 17.544 18.3729 17.7721 18.2047 17.9403C18.0365 18.1086 17.8083 18.2031 17.5704 18.2031C17.3325 18.2031 17.1044 18.1086 16.9361 17.9403C16.7679 17.7721 16.6734 17.544 16.6734 17.3061C16.6734 17.0682 16.7679 16.84 16.9361 16.6718C17.1044 16.5036 17.3325 16.4091 17.5704 16.4091C17.8083 16.4091 18.0365 16.5036 18.2047 16.6718C18.3729 16.84 18.4674 17.0682 18.4674 17.3061ZM14.0046 21.2097C14.123 21.2097 14.2401 21.1863 14.3495 21.1411C14.4588 21.0958 14.5582 21.0294 14.6418 20.9457C14.7255 20.862 14.7919 20.7627 14.8372 20.6533C14.8825 20.544 14.9058 20.4268 14.9058 20.3085C14.9058 20.1901 14.8825 20.0729 14.8372 19.9636C14.7919 19.8542 14.7255 19.7549 14.6418 19.6712C14.5582 19.5875 14.4588 19.5211 14.3495 19.4759C14.2401 19.4306 14.123 19.4073 14.0046 19.4073C13.7656 19.4073 13.5364 19.5022 13.3674 19.6712C13.1984 19.8402 13.1034 20.0694 13.1034 20.3085C13.1034 20.5475 13.1984 20.7767 13.3674 20.9457C13.5364 21.1147 13.7656 21.2097 14.0046 21.2097ZM9.7998 9.74726C9.7998 8.43326 10.8738 7.32086 12.2358 7.40486C17.5722 7.73366 22.2522 9.52886 25.9182 13.0293C26.9586 14.0217 26.7534 15.6429 25.6746 16.4709C23.9958 17.7668 22.3058 19.0481 20.6046 20.3145V22.4025C20.6046 23.2629 19.9386 24.2025 18.8046 24.2025C18.6016 24.2023 18.3999 24.1699 18.207 24.1065V24.2061C18.207 25.0617 17.5398 25.9953 16.4034 25.9953C15.4986 25.9953 14.9022 25.4001 14.6922 24.7353C14.0346 25.2273 13.3158 25.7625 12.6738 26.2401C11.4858 27.1245 9.7998 26.2761 9.7998 24.8001V9.74726ZM18.207 22.4025C18.207 22.7133 18.4398 23.0025 18.8046 23.0025C19.1706 23.0025 19.4046 22.7109 19.4046 22.4025V20.0097C19.4047 19.9151 19.4271 19.8219 19.4701 19.7376C19.513 19.6534 19.5753 19.5805 19.6518 19.5249C20.5878 18.8457 22.1814 17.6349 23.5926 16.5561C20.361 13.4805 15.831 11.6553 10.9998 11.6169V24.7989C11.0001 24.9099 11.0313 25.0186 11.0897 25.113C11.1482 25.2074 11.2317 25.2837 11.3309 25.3335C11.4302 25.3832 11.5413 25.4044 11.6519 25.3948C11.7625 25.3852 11.8683 25.345 11.9574 25.2789C12.9006 24.5757 14.013 23.7477 14.8482 23.1213C14.9373 23.0544 15.0433 23.0137 15.1543 23.0037C15.2653 22.9937 15.3769 23.0148 15.4765 23.0646C15.5762 23.1144 15.66 23.191 15.7186 23.2858C15.7772 23.3806 15.8082 23.4898 15.8082 23.6013V24.2061C15.8082 24.5025 16.0362 24.7965 16.4034 24.7965C16.482 24.7984 16.5602 24.7845 16.6334 24.7557C16.7066 24.7268 16.7732 24.6836 16.8294 24.6286C16.8856 24.5735 16.9301 24.5078 16.9604 24.4352C16.9907 24.3626 17.0061 24.2847 17.0058 24.2061V22.4025C17.0058 22.2433 17.069 22.0907 17.1815 21.9782C17.2941 21.8657 17.4467 21.8025 17.6058 21.8025C17.7649 21.8025 17.9175 21.8657 18.0301 21.9782C18.1426 22.0907 18.207 22.2433 18.207 22.4025ZM24.9414 15.5205C25.4994 15.0921 25.5414 14.3289 25.0878 13.8957C21.6594 10.6233 17.2638 8.91566 12.1614 8.60126C11.5398 8.56286 10.9998 9.07406 10.9998 9.74726V10.4169C16.1922 10.4565 21.0834 12.4413 24.5562 15.8169L24.9414 15.5205Z" stroke="#333333" stroke-width="0.3"/>
<path fill-rule="evenodd" clip-rule="evenodd" d="M18.207 22.4025C18.207 22.7133 18.4398 23.0025 18.8046 23.0025C19.1706 23.0025 19.4046 22.7109 19.4046 22.4025V20.0097C19.4047 19.9151 19.4271 19.8219 19.4701 19.7376C19.513 19.6534 19.5753 19.5805 19.6518 19.5249C20.5878 18.8457 22.1814 17.6349 23.5926 16.5561C20.361 13.4805 15.831 11.6553 10.9998 11.6169V24.7989C11.0001 24.9099 11.0313 25.0186 11.0897 25.113C11.1482 25.2074 11.2317 25.2837 11.3309 25.3335C11.4302 25.3832 11.5413 25.4044 11.6519 25.3948C11.7625 25.3852 11.8683 25.345 11.9574 25.2789C12.9006 24.5757 14.013 23.7477 14.8482 23.1213C14.9373 23.0544 15.0433 23.0137 15.1543 23.0037C15.2653 22.9937 15.3769 23.0148 15.4765 23.0646C15.5762 23.1144 15.66 23.191 15.7186 23.2858C15.7772 23.3806 15.8082 23.4898 15.8082 23.6013V24.2061C15.8082 24.5025 16.0362 24.7965 16.4034 24.7965C16.482 24.7984 16.5602 24.7845 16.6334 24.7557C16.7066 24.7268 16.7732 24.6836 16.8294 24.6286C16.8856 24.5735 16.9301 24.5078 16.9604 24.4352C16.9907 24.3626 17.0061 24.2847 17.0058 24.2061V22.4025C17.0058 22.2433 17.069 22.0907 17.1815 21.9782C17.2941 21.8657 17.4467 21.8025 17.6058 21.8025C17.7649 21.8025 17.9175 21.8657 18.0301 21.9782C18.1426 22.0907 18.207 22.2433 18.207 22.4025ZM14.6341 15.5397C14.4659 15.708 14.2377 15.8025 13.9998 15.8025C13.7619 15.8025 13.5337 15.708 13.3655 15.5397C13.1973 15.3715 13.1028 15.1434 13.1028 14.9055C13.1028 14.6676 13.1973 14.4394 13.3655 14.2712C13.5337 14.103 13.7619 14.0085 13.9998 14.0085C14.2377 14.0085 14.4659 14.103 14.6341 14.2712C14.8023 14.4394 14.8968 14.6676 14.8968 14.9055C14.8968 15.1434 14.8023 15.3715 14.6341 15.5397ZM18.2047 17.9403C18.3729 17.7721 18.4674 17.544 18.4674 17.3061C18.4674 17.0682 18.3729 16.84 18.2047 16.6718C18.0365 16.5036 17.8083 16.4091 17.5704 16.4091C17.3325 16.4091 17.1044 16.5036 16.9361 16.6718C16.7679 16.84 16.6734 17.0682 16.6734 17.3061C16.6734 17.544 16.7679 17.7721 16.9361 17.9403C17.1044 18.1086 17.3325 18.2031 17.5704 18.2031C17.8083 18.2031 18.0365 18.1086 18.2047 17.9403ZM14.3495 21.1411C14.2401 21.1863 14.123 21.2097 14.0046 21.2097C13.7656 21.2097 13.5364 21.1147 13.3674 20.9457C13.1984 20.7767 13.1034 20.5475 13.1034 20.3085C13.1034 20.0694 13.1984 19.8402 13.3674 19.6712C13.5364 19.5022 13.7656 19.4073 14.0046 19.4073C14.123 19.4073 14.2401 19.4306 14.3495 19.4759C14.4588 19.5211 14.5582 19.5875 14.6418 19.6712C14.7255 19.7549 14.7919 19.8542 14.8372 19.9636C14.8825 20.0729 14.9058 20.1901 14.9058 20.3085C14.9058 20.4268 14.8825 20.544 14.8372 20.6533C14.7919 20.7627 14.7255 20.862 14.6418 20.9457C14.5582 21.0294 14.4588 21.0958 14.3495 21.1411Z" stroke="#333333" stroke-width="0.3"/>
<path d="M24.9414 15.5205C25.4994 15.0921 25.5414 14.3289 25.0878 13.8957C21.6594 10.6233 17.2638 8.91566 12.1614 8.60126C11.5398 8.56286 10.9998 9.07406 10.9998 9.74726V10.4169C16.1922 10.4565 21.0834 12.4413 24.5562 15.8169L24.9414 15.5205Z" stroke="#333333" stroke-width="0.3"/>
</svg>
