<svg width="34" height="34" viewBox="0 0 34 34" fill="none" xmlns="http://www.w3.org/2000/svg">
<circle cx="17" cy="17" r="17" fill="#FEFEFE"/>
<path d="M16.3905 7.2866C15.4385 8.11256 14.7189 9.17303 14.3032 10.3628C13.8875 11.5527 13.79 12.8305 14.0205 14.0696C12.4985 13.1936 10.8205 12.9296 8.89245 13.0896C8.76675 13.1004 8.64441 13.1359 8.53244 13.1941C8.42046 13.2522 8.32105 13.3318 8.23987 13.4284C8.1587 13.525 8.09737 13.6367 8.05937 13.757C8.02138 13.8773 8.00747 14.0039 8.01845 14.1296C8.17545 15.8556 8.97045 17.5676 10.0785 18.9056C9.66084 18.9023 9.2435 18.928 8.82945 18.9826C8.5913 19.0143 8.37435 19.1361 8.22315 19.3228C8.07195 19.5095 7.99799 19.747 8.01645 19.9866C8.16332 21.8945 9.02488 23.6767 10.4289 24.9769C11.8329 26.2771 13.6759 26.9994 15.5895 26.9996H18.4105C20.3242 26.9997 22.1674 26.2774 23.5717 24.9772C24.9759 23.677 25.8376 21.8947 25.9845 19.9866C26.0029 19.7469 25.9288 19.5092 25.7774 19.3225C25.626 19.1357 25.4088 19.0141 25.1705 18.9826C24.7614 18.9287 24.3491 18.9029 23.9365 18.9056C25.0445 17.5666 25.8395 15.8556 25.9965 14.1296C26.0074 14.0038 25.9935 13.8771 25.9554 13.7568C25.9174 13.6364 25.856 13.5247 25.7747 13.4281C25.6934 13.3315 25.5939 13.2519 25.4818 13.1938C25.3697 13.1357 25.2472 13.1003 25.1215 13.0896C23.1935 12.9296 21.5065 13.1936 19.9795 14.0696C20.21 12.8306 20.1127 11.5528 19.6972 10.363C19.2816 9.17319 18.5623 8.11267 17.6105 7.2866C17.4412 7.13956 17.2246 7.05859 17.0005 7.05859C16.7763 7.05859 16.5597 7.13956 16.3905 7.2866ZM17.0005 16.7266C15.9735 15.6575 15.3999 14.2325 15.3999 12.7501C15.3999 11.2676 15.9735 9.84268 17.0005 8.7736C18.0272 9.84263 18.6005 11.2674 18.6005 12.7496C18.6005 14.2318 18.0272 15.6566 17.0005 16.7256M17.0005 22.3326C15.9112 20.9467 14.439 19.9112 12.7665 19.3546C12.7341 19.324 12.6996 19.2956 12.6635 19.2696C11.1935 18.2696 9.94345 16.4256 9.59045 14.5496C11.4595 14.4876 12.9265 14.9366 14.2655 16.0706C15.2905 16.9396 15.7455 17.9986 16.0825 18.7856C16.1705 18.9896 16.2495 19.1756 16.3295 19.3336C16.3918 19.458 16.4875 19.5626 16.606 19.6357C16.7244 19.7088 16.8608 19.7475 17 19.7475C17.1391 19.7475 17.2755 19.7088 17.3939 19.6357C17.5124 19.5626 17.6081 19.458 17.6705 19.3336C17.7491 19.1736 17.8315 18.9909 17.9175 18.7856C17.9181 18.7841 17.9187 18.7826 17.9194 18.7811C18.2572 17.9946 18.7114 16.9369 19.7345 16.0706C21.0735 14.9376 22.5515 14.4876 24.4245 14.5496C24.0705 16.4256 22.8215 18.2696 21.3515 19.2696C21.3179 19.2933 21.2858 19.319 21.2555 19.3466C19.5742 19.902 18.0941 20.94 17.0005 22.3326ZM17.6435 24.0396C19.0365 21.7096 21.6455 20.2596 24.4225 20.4166C24.183 21.8378 23.4476 23.1282 22.347 24.0588C21.2464 24.9893 19.8517 25.4998 18.4105 25.4996H15.5905C12.5905 25.4996 10.0665 23.3236 9.57945 20.4176C12.3555 20.2596 14.9645 21.7086 16.3575 24.0396C16.424 24.1508 16.5183 24.2429 16.6311 24.3068C16.7439 24.3708 16.8713 24.4044 17.001 24.4044C17.1306 24.4044 17.258 24.3708 17.3708 24.3068C17.4836 24.2429 17.5779 24.1508 17.6445 24.0396" fill="#EFFAE5"/>
<path d="M17.0005 22.3326C15.9112 20.9467 14.439 19.9112 12.7665 19.3546C12.7341 19.324 12.6996 19.2956 12.6635 19.2696C11.1935 18.2696 9.94345 16.4256 9.59045 14.5496C11.4595 14.4876 12.9265 14.9366 14.2655 16.0706C15.2905 16.9396 15.7455 17.9986 16.0825 18.7856C16.1705 18.9896 16.2495 19.1756 16.3295 19.3336C16.3918 19.458 16.4875 19.5626 16.606 19.6357C16.7244 19.7088 16.8608 19.7475 17 19.7475C17.1391 19.7475 17.2755 19.7088 17.3939 19.6357C17.5124 19.5626 17.6081 19.458 17.6705 19.3336C17.7491 19.1736 17.8315 18.9909 17.9175 18.7856L17.9194 18.7811C18.2572 17.9946 18.7114 16.9369 19.7345 16.0706C21.0735 14.9376 22.5515 14.4876 24.4245 14.5496C24.0705 16.4256 22.8215 18.2696 21.3515 19.2696C21.3179 19.2933 21.2858 19.319 21.2555 19.3466C19.5742 19.902 18.0941 20.94 17.0005 22.3326Z" fill="#EFFAE5"/>
<path fill-rule="evenodd" clip-rule="evenodd" d="M16.3905 7.2866C15.4385 8.11256 14.7189 9.17303 14.3032 10.3628C13.8875 11.5527 13.79 12.8305 14.0205 14.0696C12.4985 13.1936 10.8205 12.9296 8.89245 13.0896C8.76675 13.1004 8.64441 13.1359 8.53244 13.1941C8.42046 13.2522 8.32105 13.3318 8.23987 13.4284C8.1587 13.525 8.09737 13.6367 8.05937 13.757C8.02138 13.8773 8.00747 14.0039 8.01845 14.1296C8.17545 15.8556 8.97045 17.5676 10.0785 18.9056C9.66084 18.9023 9.2435 18.928 8.82945 18.9826C8.5913 19.0143 8.37435 19.1361 8.22315 19.3228C8.07195 19.5095 7.99799 19.747 8.01645 19.9866C8.16332 21.8945 9.02488 23.6767 10.4289 24.9769C11.8329 26.2771 13.6759 26.9994 15.5895 26.9996H18.4105C20.3242 26.9997 22.1674 26.2774 23.5717 24.9772C24.9759 23.677 25.8376 21.8947 25.9845 19.9866C26.0029 19.7469 25.9288 19.5092 25.7774 19.3225C25.626 19.1357 25.4088 19.0141 25.1705 18.9826C24.7614 18.9287 24.3491 18.9029 23.9365 18.9056C25.0445 17.5666 25.8395 15.8556 25.9965 14.1296C26.0074 14.0038 25.9935 13.8771 25.9554 13.7568C25.9174 13.6364 25.856 13.5247 25.7747 13.4281C25.6934 13.3315 25.5939 13.2519 25.4818 13.1938C25.3697 13.1357 25.2472 13.1003 25.1215 13.0896C23.1935 12.9296 21.5065 13.1936 19.9795 14.0696C20.21 12.8306 20.1127 11.5528 19.6972 10.363C19.2816 9.17319 18.5623 8.11267 17.6105 7.2866C17.4412 7.13956 17.2246 7.05859 17.0005 7.05859C16.7763 7.05859 16.5597 7.13956 16.3905 7.2866ZM12.7665 19.3546C14.439 19.9112 15.9112 20.9467 17.0005 22.3326C18.0941 20.94 19.5742 19.902 21.2555 19.3466C21.2858 19.319 21.3179 19.2933 21.3515 19.2696C22.8215 18.2696 24.0705 16.4256 24.4245 14.5496C22.5515 14.4876 21.0735 14.9376 19.7345 16.0706C18.7114 16.9369 18.2572 17.9946 17.9194 18.7811L17.9175 18.7856C17.8315 18.9909 17.7491 19.1736 17.6705 19.3336C17.6081 19.458 17.5124 19.5626 17.3939 19.6357C17.2755 19.7088 17.1391 19.7475 17 19.7475C16.8608 19.7475 16.7244 19.7088 16.606 19.6357C16.4875 19.5626 16.3918 19.458 16.3295 19.3336C16.2495 19.1756 16.1705 18.9896 16.0825 18.7856C15.7455 17.9986 15.2905 16.9396 14.2655 16.0706C12.9265 14.9366 11.4595 14.4876 9.59045 14.5496C9.94345 16.4256 11.1935 18.2696 12.6635 19.2696C12.6996 19.2956 12.7341 19.324 12.7665 19.3546Z" fill="#EFFAE5"/>
<path d="M16.3905 7.2866C15.4385 8.11256 14.7189 9.17303 14.3032 10.3628C13.8875 11.5527 13.79 12.8305 14.0205 14.0696C12.4985 13.1936 10.8205 12.9296 8.89245 13.0896C8.76675 13.1004 8.64441 13.1359 8.53244 13.1941C8.42046 13.2522 8.32105 13.3318 8.23987 13.4284C8.1587 13.525 8.09737 13.6367 8.05937 13.757C8.02138 13.8773 8.00747 14.0039 8.01845 14.1296C8.17545 15.8556 8.97045 17.5676 10.0785 18.9056C9.66084 18.9023 9.2435 18.928 8.82945 18.9826C8.5913 19.0143 8.37435 19.1361 8.22315 19.3228C8.07195 19.5095 7.99799 19.747 8.01645 19.9866C8.16332 21.8945 9.02488 23.6767 10.4289 24.9769C11.8329 26.2771 13.6759 26.9994 15.5895 26.9996H18.4105C20.3242 26.9997 22.1674 26.2774 23.5717 24.9772C24.9759 23.677 25.8376 21.8947 25.9845 19.9866C26.0029 19.7469 25.9288 19.5092 25.7774 19.3225C25.626 19.1357 25.4088 19.0141 25.1705 18.9826C24.7614 18.9287 24.3491 18.9029 23.9365 18.9056C25.0445 17.5666 25.8395 15.8556 25.9965 14.1296C26.0074 14.0038 25.9935 13.8771 25.9554 13.7568C25.9174 13.6364 25.856 13.5247 25.7747 13.4281C25.6934 13.3315 25.5939 13.2519 25.4818 13.1938C25.3697 13.1357 25.2472 13.1003 25.1215 13.0896C23.1935 12.9296 21.5065 13.1936 19.9795 14.0696C20.21 12.8306 20.1127 11.5528 19.6972 10.363C19.2816 9.17319 18.5623 8.11267 17.6105 7.2866C17.4412 7.13956 17.2246 7.05859 17.0005 7.05859C16.7763 7.05859 16.5597 7.13956 16.3905 7.2866ZM17.0005 16.7266C15.9735 15.6575 15.3999 14.2325 15.3999 12.7501C15.3999 11.2676 15.9735 9.84268 17.0005 8.7736C18.0272 9.84263 18.6005 11.2674 18.6005 12.7496C18.6005 14.2318 18.0272 15.6566 17.0005 16.7256M17.0005 22.3326C15.9112 20.9467 14.439 19.9112 12.7665 19.3546C12.7341 19.324 12.6996 19.2956 12.6635 19.2696C11.1935 18.2696 9.94345 16.4256 9.59045 14.5496C11.4595 14.4876 12.9265 14.9366 14.2655 16.0706C15.2905 16.9396 15.7455 17.9986 16.0825 18.7856C16.1705 18.9896 16.2495 19.1756 16.3295 19.3336C16.3918 19.458 16.4875 19.5626 16.606 19.6357C16.7244 19.7088 16.8608 19.7475 17 19.7475C17.1391 19.7475 17.2755 19.7088 17.3939 19.6357C17.5124 19.5626 17.6081 19.458 17.6705 19.3336C17.7491 19.1736 17.8315 18.9909 17.9175 18.7856C18.2555 17.9986 18.7095 16.9386 19.7345 16.0706C21.0735 14.9376 22.5515 14.4876 24.4245 14.5496C24.0705 16.4256 22.8215 18.2696 21.3515 19.2696C21.3179 19.2933 21.2858 19.319 21.2555 19.3466C19.5742 19.902 18.0941 20.94 17.0005 22.3326ZM17.6435 24.0396C19.0365 21.7096 21.6455 20.2596 24.4225 20.4166C24.183 21.8378 23.4476 23.1282 22.347 24.0588C21.2464 24.9893 19.8517 25.4998 18.4105 25.4996H15.5905C12.5905 25.4996 10.0665 23.3236 9.57945 20.4176C12.3555 20.2596 14.9645 21.7086 16.3575 24.0396C16.424 24.1508 16.5183 24.2429 16.6311 24.3068C16.7439 24.3708 16.8713 24.4044 17.001 24.4044C17.1306 24.4044 17.258 24.3708 17.3708 24.3068C17.4836 24.2429 17.5779 24.1508 17.6445 24.0396" fill="black"/>
</svg>
