<svg width="34" height="34" viewBox="0 0 34 34" fill="none" xmlns="http://www.w3.org/2000/svg">
<circle cx="17" cy="17" r="17" fill="#FEFEFE"/>
<g clip-path="url(#clip0_963_9801)">
<path d="M21.167 18.0253C21.167 18.0253 20.4087 17.642 19.652 17.642C18.5153 17.642 17.0003 19.1795 17.0003 21.4878C17.0003 23.7953 19.0753 25.3337 21.167 25.3337C23.2587 25.3337 25.3337 23.7953 25.3337 21.4878C25.3337 19.1803 23.8187 17.6412 22.682 17.6412C21.9245 17.6412 21.167 18.0253 21.167 18.0253ZM21.167 18.0253C21.167 16.872 21.9253 15.3345 23.4395 15.3345L21.167 18.0253ZM15.8795 11.167C16.6262 11.167 17.232 10.607 17.232 9.91699C17.232 9.22699 16.6253 8.66699 15.8795 8.66699H11.3712C10.6245 8.66699 10.0195 9.22699 10.0195 9.91699C10.0195 10.607 10.6245 11.167 11.372 11.167M16.3078 11.1028C17.1045 12.5745 17.7578 13.9028 18.1578 15.3337C18.1906 15.4503 18.2503 15.6862 18.2503 15.6862M15.6903 25.3337H12.2737C9.28949 25.3337 8.66699 24.7587 8.66699 22.0003V18.4812C8.66699 15.6478 9.58199 13.572 10.9212 11.0962" fill="#EFFAE5"/>
<path d="M21.167 18.0253C21.167 18.0253 20.4087 17.642 19.652 17.642C18.5153 17.642 17.0003 19.1795 17.0003 21.4878C17.0003 23.7953 19.0753 25.3337 21.167 25.3337C23.2587 25.3337 25.3337 23.7953 25.3337 21.4878C25.3337 19.1803 23.8187 17.6412 22.682 17.6412C21.9245 17.6412 21.167 18.0253 21.167 18.0253ZM21.167 18.0253C21.167 16.872 21.9253 15.3345 23.4395 15.3345M15.8795 11.167C16.6262 11.167 17.232 10.607 17.232 9.91699C17.232 9.22699 16.6253 8.66699 15.8795 8.66699H11.3712C10.6245 8.66699 10.0195 9.22699 10.0195 9.91699C10.0195 10.607 10.6245 11.167 11.372 11.167M16.3078 11.1028C17.1045 12.5745 17.7578 13.9028 18.1578 15.3337C18.1906 15.4503 18.2503 15.6862 18.2503 15.6862M15.6903 25.3337H12.2737C9.28949 25.3337 8.66699 24.7587 8.66699 22.0003V18.4812C8.66699 15.6478 9.58199 13.572 10.9212 11.0962" stroke="black" stroke-width="1.5" stroke-linecap="round" stroke-linejoin="round"/>
</g>
<defs>
<clipPath id="clip0_963_9801">
<rect width="20" height="20" fill="white" transform="translate(7 7)"/>
</clipPath>
</defs>
</svg>
